<?xml version="1.0" encoding="UTF-8"?>
<svg version="1.1" viewBox="0 0 2000 2000" width="500" height="500" xmlns="http://www.w3.org/2000/svg">
<path transform="translate(974,476)" d="m0 0h67l40 2 34 3 33 5 28 6 32 9 23 8 19 8 20 10 16 10 11 8 11 9 10 9 16 16 13 17 10 14 14 24 13 27 9 24 7 21v4l-49 9-80 14-5 1-3-5-7-21-9-20-9-16-10-14-10-11-6-7-11-9-15-11-23-12-21-9-25-7-24-5-29-4-39-2h-13l9 11 11 13 13 18 9 16 6 16 3 15 8-7 14-12 17-16 3-4 1-6 4 2 12 16 10 15 12 23 7 20 2 9 8 4 12 5 11 6 10 8 7 7 7 11 4 10 2 12-3 14-8 16-9 19-2 6-1 46-3 12-8 13-13 13-15 10-17 9-18 6h-4v2l8 1 55 15 36 12 24 9 29 12 34 17 19 12 17 12 10 9 2 1v2l4 2 12 12 7 8 12 15 11 18 11 21 8 21 6 22 4 24 2 23v34l-2 26-4 24-8 29-8 20-8 17-12 19-12 16-12 14-18 18-14 11-11 9-19 12-21 12-24 11-26 10-18 6-44 11-31 6-33 4-33 3-16 1-32 1h-27l-34-1-41-3-33-4-23-4-34-7-32-9-31-11-20-9-16-8-18-10-18-12-13-10-14-12-8-7-9-9-9-11-11-13-10-15-12-20-13-27-8-21-9-32 2-4 50-10 77-15 5 1 8 26 10 23 10 18 10 14 11 13 18 18 15 11 15 9 17 9 25 10 28 9 28 6 17 3h15l8-6 8-3h11l11 4 7 8 9 2 25 1 30-1 36-3 18-2 3-1-13-12-8-7-10-9v-2l-4-2-11-12-14-14-12-5-22-8-5-1-3 3-13 3-35 6-8 1h-29l-35-5-19-5-19-7-21-11-16-11-14-11-14-12-14-14-4-5 1-3 25-2 32-6 46-12 23-5 8-1h31l12 3 14 8 13 9 14 12 11 12 7 8v2l3 1 12 16-2-4-6-9-10-18-13-23-11-23-12-31-5-13-8-29-8-35-6-41-2-26-1-28-7-3-55-15-20-6-29-1-12-4-13-9-11-7-11-3-23-1-16-3-10-5-10-11-10-19-6-16-12-13-9-11-11-14-11-18-11-22-6-16-7-28-4-29-1-18v-16l2-29 5-29 4-18-9-1-10-6-18-18-9-11-6-7-4-3v-2l14-6 16-5h18l13 4 10 5 4 4 4 1-3-7-10-16-12-17-11-13-12-14-6-6v-2h-2l-2-3-7 1h-11l-7-3-1-3v-45l2-4 7-3h10l9 3 8 6 6 10 1 3v13l-3 8-5 6h-2l7 9 13 15 22 28 7 10 7 11h2l6-9 8-10 26-26 14-11 17-12 15-9 28-14 26-10 23-7 36-9 27-5 28-4 35-3zm-51 104v4h4v-4zm63 0-43 3-26 4-5 2-2 8-5 7-12 6-9-1-10-5-3-4h-9l-3-4h-2v5l-30 15-10 6-4 2-9 1-5 4-4 10-7 8-10 14-9 16-7 19-3 14v8l10 5 11 6 18 11 5 4 2-1 5-16 4-12 11-25 8-16 7-15 4-13 1-8 8-2 10-3 11-1h19l12 2 14 6 11 9 10 13 4 4 4-6 17-34 7-8 13-20 7-11 2-7zm-50 449v19l5 53 3 22 8 36 10 35 3 3 13-10 6-5 7-11 3-14v-38l1-14 5-16 6-11 10-13 7-7 6-5-1-4-74-17-15-3zm129 30-1 1v12l5 40 2 18v10l-2 13-5 13-7 9-9 8-16 8-18 6-34 5-14 1 2 6 8 16 11 24 12 23 15 24 10 14 13 17 14 17 7 8 12 13 18 18 8 7 12 10 3 1-2-6-10-19-5-13-4-20-1-9v-18l5-36 8-31 11-35 7-19 13-38 3-17-2-9-3-10 5 3 10 9 11 9 18 14 16 12 14 11 13 12 12 12 9 12 8 14 1 4 1 45v61l3-1 10-13 8-13 8-17 6-20 3-18 1-12v-26l-3-19-4-16-7-17-8-14-9-11-10-10-8-7-14-10-15-9-15-8-29-12-36-12-44-11-18-4zm72 85 1 3z" fill="#25025C"/>
<path transform="translate(974,476)" d="m0 0h67l40 2 34 3 33 5 28 6 32 9 23 8 19 8 20 10 16 10 11 8 11 9 10 9 16 16 13 17 10 14 14 24 13 27 9 24 7 21v4l-49 9-80 14-5 1-3-5-7-21-9-20-9-16-10-14-10-11-6-7-11-9-15-11-23-12-21-9-25-7-24-5-29-4-39-2h-13l9 11 11 13 13 18 9 16 6 16 3 15 8-7 14-12 17-16 3-4 1-6 4 2 12 16 10 15 12 23 7 20 2 9 2 5 3 14 1 7v32l-3 11-3 8-7 15h-2l-2 4-7 10-8 12h-2l-2 4-8 8-12 9-19 11-7 4h-2l1 7 1 1 1 7 1 5v7l7 26 2 9-1 10 3 6v2l-6 3-9 2-7 2-15 1h-24l-16-2-13-4-19-10-12-9-14-13v-7l2-5 1-1v-5l-4-2v-7l5-8v-10l-5-12-8-12-7-8-8-7-12-9-2-1v-2l-14-7-7-2 6 11 2 5 4 18 7 21 3 8 2 7 1 9 3 8 4 9 4 7v2l-13 8-17 7v5l5 2 3 22 2 5-1 8-6 7-16 10-12 5-21 7-10 4-30-1-12-4-13-9-11-7-11-3-23-1-16-3-10-5-10-11-10-19-6-16-12-13-9-11-11-14-11-18-11-22-6-16-7-28-4-29-1-18v-16l2-29 5-29 4-18-9-1-10-6-18-18-9-11-6-7-4-3v-2l14-6 16-5h18l13 4 10 5 4 4 4 1-3-7-10-16-12-17-11-13-12-14-6-6v-2h-2l-2-3-7 1h-11l-7-3-1-3v-45l2-4 7-3h10l9 3 8 6 6 10 1 3v13l-3 8-5 6h-2l7 9 13 15 22 28 7 10 7 11h2l6-9 8-10 26-26 14-11 17-12 15-9 28-14 26-10 23-7 36-9 27-5 28-4 35-3zm-51 104v4h4v-4zm63 0-43 3-26 4-5 2-2 8-5 7-12 6-9-1-10-5-3-4h-9l-3-4h-2v5l-30 15-10 6-4 2-9 1-5 4-4 10-7 8-10 14-9 16-7 19-3 14v8l10 5 11 6 18 11 5 4 2-1 5-16 4-12 11-25 8-16 7-15 4-13 1-8 8-2 10-3 11-1h19l12 2 14 6 11 9 10 13 4 4 4-6 17-34 7-8 13-20 7-11 2-7z" fill="#F5A8BE"/>
<path transform="translate(974,476)" d="m0 0h67l40 2 34 3 33 5 28 6 32 9 23 8 19 8 20 10 16 10 11 8 11 9 10 9 16 16 13 17 10 14 14 24 13 27 9 24 7 21v4l-49 9-80 14-5 1-3-5-7-21-9-20-9-16-10-14-10-11-6-7-11-9-15-11-23-12-21-9-25-7-24-5-29-4-39-2h-13l9 11 11 13 13 18 9 16 6 16 3 15 8-7 14-12 17-16 3-4 1-6 4 2 12 16 6 9v3l-6 1-7 4-1 5-2-3-2-10-5 2-7 9-4 1-1 4-8 10h-2l-1 5-4 7-3 2-1 3-4 1v2h-2l-2 5-4 2-1 4-8 11-4 7-6 4-6 10h-2l-1 4h-2l-1 4-3 1-2 5-8 10h-2l-1 6-2 1-1-6 2-16 5-16 5-11 3-11-1-1v-7l5-5v-7l-3-3v-2l-11-1-3-5 4-8v-8l-3-5-5-3-9-1h-5l-2-3 1-7v-15l-3-6-10-5-9-1 1-6 10-15 7-11 3-7-26 2-34 3-21 4-2 8-6 8-12 6-9-1-10-5-3-3v-2l-9 1-5-5 1 5-8 5-18 8-12 7-7 4-9 1-5 5-3 8-7 8-10 14-9 16-7 19-4 20-9-1-15-5-39-6-5-1v4l4 2 4 6 4 14v20l-2 10-1 14v22l2 15 5 18v3l-5 2-19 3h-20l-9-3-7-4-5-6v-4h-2v-15l-2 1-2 9-1 14-2-1-6-24-4-29-1-18v-16l2-29 5-29 4-18-9-1-10-6-18-18-9-11-6-7-4-3v-2l14-6 16-5h18l13 4 10 5 4 4 4 1-3-7-10-16-12-17-11-13-12-14-6-6v-2h-2l-2-3-7 1h-11l-7-3-1-3v-45l2-4 7-3h10l9 3 8 6 6 10 1 3v13l-3 8-5 6h-2l7 9 13 15 22 28 7 10 7 11h2l6-9 8-10 26-26 14-11 17-12 15-9 28-14 26-10 23-7 36-9 27-5 28-4 35-3zm-51 104v4h4v-4z" fill="#25025C"/>
<path transform="translate(935,967)" d="m0 0 3 1 1 9v12l-2 30v29l5 53 3 22 8 36 10 35 2 2 13-10 5-4 7-11 3-14v-38l1-14 5-16 6-11 10-13 8-8 5-4 1-3 10-5 14-9 11-6 9-3 11-2-2 5-10 9-4 8-2 12-1 1v12l5 40 2 18v10l-2 13-5 13-7 9-7 7-16 9-21 7-34 5h-14l10 21 6 12 11 23 10 18 12 19 10 14 13 17 14 17 7 8 12 13 17 17 8 7 12 10h2l-14-27-5-17-3-21v-18l5-36 8-31 11-35 7-19 13-38 3-17-2-9-2-5v-5l4 1 11 10 11 9 18 14 16 12 14 11 13 12 13 13 9 12 8 14 1 4 1 45v51l-1 10 6-5-2 5-1 3-1 55-2 9-7 15-5 10-4 10-2 4-5 4-5-12-4-8-5-13-1-3-4-16-2-6v-6l-4-9-7-19-5-10-2-12-2-7h-2l-3 12-1 1-1 16v27l1 10 13 39 9 22 3 6v3l3 1 1 5-1 1-36 4-18 1h-22l-32-3v-2h-7l-11-2-1-2 5-2h75l30-1 11-1-9-5-19-10-14-6-6-2-5-2-7-2-16-11-4-3v-2h-3l-1-2-3-1v-2l-4-1-8-5-3-2 3-1-13-12-8-7-10-9v-2l-4-2-11-12-14-14-12-5-22-8-5-1-3 3-13 3-35 6-8 1h-29l-35-5-19-5-19-7-21-11-16-11-14-11-14-12-14-14-4-5 1-3 25-2 32-6 46-12 23-5 8-1h31l12 3 14 8 13 9 14 12 11 12 7 8v2l3 1 12 16-2-4-6-9-10-18-13-23-11-23-12-31-5-13-8-29-8-35-6-41-2-26-1-28-1-2h2l1-16 2-16 1-3 2-21zm202 177 1 3z" fill="#F4A7BE"/>
<path transform="translate(972,616)" d="m0 0 1 3h9l11 6 3 6v15l-1 7 3 2h8l7 3 5 5 1 2v8l-4 9 3 3 8 1 6 6v7l-3 3h-2v9 4l-3 10-6 14-4 15-1 16 1 1 2-6 5-5 6-8 4-4 2-5h2v-2h2l2-6 5-6 5-4 7-11 5-6 1-3 5-5 1-2h2v-2l4-1 1-4 3-1 2-5 3-7h2l2-4 6-7 1-3 5-3 7-9h4l3 10 3-4 9-4 3 1 1-2 10 18 7 15 5 15 2 9 2 5 3 14 1 7v32l-3 11-3 8-7 15h-2l-2 4-7 10-8 12h-2l-2 4-8 8-12 9-19 11-7 4h-2l1 7 1 1 1 7 1 5v7l7 26 2 9-1 10 3 6v2l-6 3-9 2-7 2-15 1h-24l-16-2-13-4-19-10-12-9-14-13v-7l2-5 1-1v-5l-4-2v-7l5-8 1-7 1 3h2v-2l5-5 8-9 1-6-5-6-5-13-2-11-3-9-4-8-4-13-2-7-5-11-7-21-5-16-4-16-3-7-3-10-4-9-3-9-6-15-5-14-6-11v-3l-2-11 9 1 12 6 10 8 11 14 3 3 8-16 7-12 4-10 8-9z" fill="#CB7FAF"/>
<path transform="translate(838,794)" d="m0 0h15l7 1 1 1 15 3 15 5 8 4-3 2 8 13 2 11 2 9 7 21 3 8 2 7 1 9 3 8 4 9 4 7v2l-13 8-17 7v5l5 2 3 22 2 5-1 8-6 7-16 10-12 5-21 7-10 4-30-1-12-4-13-9-11-7-11-3-23-1-16-3-10-5-10-11-10-19-6-16-12-13-9-11-11-14-11-18-11-22-3-10 5 4 4 6 12 12 8 7 9 10 8 14 6 14 2 6 3-3-4-13-5-1v-2h2l-1-8h-2l-2-10 4-4 6 1v2l6 1 14 6v2l6 1 7 4 22 14 18 11 1 3 9 3 18 8 1 3 10 2 18 5 6 2h25l8-2-2-6-4-2-3-5-1-10-4-14-4-16-3-9-5-12-4-13-4-9-8-32-1-3-5-5 3-2 11-2z" fill="#CB7FAF"/>
<path transform="translate(1147,695)" d="m0 0h2l4 15 2 5 3 14 1 7v32l-3 11-3 8-7 15h-2l-2 4-7 10-8 12h-2l-2 4-8 8-12 9-19 11-7 4h-2l1 7 1 1 1 7 1 5v7l7 26 2 9-1 10 3 6v2l-6 3-9 2-7 2-15 1h-24l-16-2-13-4-19-10-12-9-14-13v-7l6-7 20-3 4-2-9-2v-3l3-5 3-3v-3l5-3 1-2h3l1-4 1-2h2l1-5 3-5h2l2-5 1-2h2v-2l5-5 5-6 5-4 2-4h2v-3h2v-2h2l2-5 8-12 3-3 2-4 4-4h2l2-5 4-6h3l1-6 2-1 4-7 4-4 2-4h2l2-5 2-1 2-4h2l1-4 3-3 4-5 1-3h2l2-5 5-7h2l2-5 4-1 2-4 2-1v9l7-4 7-6 8-7 7-6 2-5 4 1z" fill="#E492B6"/>
<path transform="translate(894,1237)" d="m0 0h31l12 3 14 8 13 9 14 12 11 12 7 8v2l3 1 12 16 8 11 11 13 7 9 1 4-8-2-22-8-5-1-3 3-13 3-35 6-8 1h-29l-35-5-19-5-19-7-21-11-16-11-14-11-14-12-14-14-4-5 1-3 25-2 32-6 46-12 23-5z" fill="#CB7FAF"/>
<path transform="translate(1154,712)" d="m0 0 10 3 17 8 12 9 8 8 7 11 4 10 2 12-3 14-8 16-9 19-2 6-1 46-3 12-8 13-13 13-15 10-17 9-18 6h-4v2l4 1-10 2-20 5-3-1 5-3-2-5-1-3 1-11-7-25-2-9v-10l-1-1-1-7-2-6 3-3 16-9 17-11 13-12 2-3h2l2-5 11-15 4-6h2l1-5 6-11 3-9 2-9v-32l-2-14-2-7z" fill="#8251A3"/>
<path transform="translate(1131,1121)" d="m0 0 4 1 11 10 11 9 18 14 16 12 14 11 13 12 13 13 9 12 8 14 1 4 1 45v51l-1 10 6-5-2 5-1 3-1 55-2 9-7 15-5 10-4 10-2 4-5 4-5-12-4-8-5-13-1-3-4-16-2-6v-6l-4-9-7-19-5-10-2-12-2-7-1-1 1-9 6-22 2-10v-21l-2-11-3-9-9-22-3-9-2-1-4-10-3-6-3-3-7-14-4-12v-2h-2l-5-8-3-9-4-3-3-7-4-10z" fill="#A564A7"/>
<path transform="translate(874,631)" d="m0 0h19l9 1-3 1 1 2v6l2 1-1 2 2 1-1 3 4 7 5 10 6 18 4 8 4 13 3 7 3 10 2 4 4 17 5 16 6 17 5 11 2 7 4 13 5 10 2 7 2 11 5 13 5 5-1 7-10 11-2 3h-2v2h-2l-6-16-9-14-7-8-8-7-12-9-2-1v-2l-14-7-4-1-3-3-3-2-5-5-5-6-6-15-2-12-3-13-2-3-2-9-1-1-2-10-2-8h-2l-3-8-3-5-4-11-2-12-1-2-1-13-3-10v-2l-2-3 3-1-2-3 1-15 9-3 10-3z" fill="#F5A8BE"/>
<path transform="translate(952,1398)" d="m0 0h11l11 4 7 8 9 2 25 1 30-1 36-3 8-1h13l9 6 3 1v2l4 1v2h3l5 5 12 8 4 3 9 2 7 3 10 4 21 10 12 7 1 2-12 1-30 1h-75l-4 2 18 3v1h-8l-18-4-6-2 1 2-1 9-1 5-4 8-8 8-7 4h-2v2l-11 5-10 3-7 1h-25l3-5 5-5 4-5 1-5-2-9h2l-1-6 2-4h2v-2h2v-2l6-4 1-2h4v-2l4-3-21-6-9-4-7-3h-6l-8 7-10 4h-12l-10-4-7-6-4-7-3-6v-13l2-10 1-3 6-2 9-6z" fill="#25025C"/>
<path transform="translate(1136,1139)" d="m0 0 2 1 1 6 4 2 3 6 3 8 2 4h2l7 18 5 10v2l3 1 6 12v4l3 1 4 11 8 20 2 8 1 20-3 3-10 6-4 9h-2l-2 4-7 12-3 5-6 7-3 8h-2v2h-2l-2 4-4 6-7 14-8 13-2 5-4 6-5 2-2 11-3 9-4-5-11-22-5-17-3-21v-18l5-36 8-31 11-35 7-19 13-38 3-17zm1 5 1 3z" fill="#FCBDC5"/>
<path transform="translate(667,638)" d="m0 0 3 2v2h2l6 11 10 21 7 15 4 13h-11v2l3 1v2l4 2 4 6 4 14v20l-2 10-1 14v22l2 15 5 18v3l-5 2-19 3h-20l-9-3-7-4-5-6v-4h-2v-15l-2 1-2 9-1 14-2-1-6-24-4-29-1-18v-16l2-29 5-29 5-14 10-3 14-5 10-5z" fill="#25025D"/>
<path transform="translate(638,804)" d="m0 0h2v15h2l3 7 6 5 7 3 5 1h20l19-3 16-5 33-11 10-4h6v-2h9l7 2 5 7 4 9 6 22 5 10 3 7 4 16 3 10 6 16 5 15 1 4h2l2 6-6 1-16-3-13-4-1-2-14-6-9-4-4-2-3-3-11-7-13-8-11-7-10-6-6-2v-2l-10-3-10-4v-2l-6-1-1 2-2 3 1 9h2l2 5-1 4-2-1 2 2 4 1 3 11 1 2-4 4-5-11-4-10-6-11-8-10-8-8-8-7-9-9-1-4-3-1-3-3-2-9 2-20z" fill="#FBBCC4"/>
<path transform="translate(1081,1025)" d="m0 0h3l-2 5-10 9-4 8-2 12-1 1v12l5 40 2 18v10l-2 13-5 13-7 9-7 7-16 9-21 7-25 4h-19l-3-3 1-5 11-9 5-5 6-9 3-14v-38l1-14 5-16 6-11 10-13 8-8 5-4 1-3 10-5 14-9 11-6 9-3z" fill="#8251A3"/>
<path transform="translate(1106,652)" d="m0 0h4l3 10 3-4 9-4 3 1 1-2 10 18 7 15 2 9-1 3-3 1-16 16-6 4-7 6h-2l1-28h-7l-1 4-1 2h-2l-1 3h-2v2h-2v3l-6 5h-2l-2 5h-2l-2 7-11 14h-2l-2 4-6 9h-2l-2 5-4 5h-2l-2 6h-2l-2 6-7 8-1 2h-2l-1 4h-2v3h-2l-2 5-5 6h-2l-2 4-4 4-7 10-10 13-1 2-6 1 1-8-4-12-3-4-6-20-1-1v-6h-2l-3-10-6-15-5-15-2-5-7-28-3-9-2-8-5-15v-6h3l6 8 11 16 7 9 8 11 12 16 10 9 8 6h2l3-10h1l-3 24 1 5 2-6 5-5 6-8 4-4 2-5h2v-2h2l2-6 5-6 5-4 7-11 5-6 1-3 5-5 1-2h2v-2l4-1 1-4 3-1 2-5 3-7h2l2-4 6-7 1-3 5-3z" fill="#A564A7"/>
<path transform="translate(637,837)" d="m0 0 5 4 4 6 12 12 8 7 9 10 8 14 6 14 2 6 3-3-4-13-5-1v-2h2l-1-8h-2l-2-10 4-4 6 1v2l6 1 14 6v2l6 1 7 4 22 14 18 11 1 3 9 3 18 8 1 3 10 2 11 3v1l-6 1 3 6 5 5 3 19 5 13 1 11-2 6-1 6 4 2h-11l-12-4-13-9-11-7-11-3-23-1-16-3-10-5-10-11-10-19-6-16-12-13-9-11-11-14-11-18-11-22z" fill="#F6A9BF"/>
<path transform="translate(691,703)" d="m0 0 15 1 10 2 19 3 15 5 9 2 3 3 11 5 14 8 12 8 4 3v13l-2 15v15l1 14h-4v2l-16 4-10 3-5 1v2l-9 2-12 5-37 12-2-1-3-8-4-17-1-10v-22l2-22 1-2v-20l-4-14-5-7-2-1z" fill="#E291B6"/>
<path transform="translate(997,562)" d="m0 0h2l3 6 8 10 7 1v1l-5 1 9 11 11 13 13 18 9 16 6 16 3 15 8-7 14-12 17-16 3-4 1-6 4 2 12 16 6 9v3l-6 1-7 4-1 5-2-3-2-10-5 2-7 9-4 1-1 4-8 10h-2l-1 5-4 7-3 2-1 3-4 1v2h-2l-2 5-4 2-1 4-8 11-4 7-6 4-6 10h-2l-1 4h-2l-1 4-3 1-2 5-8 10h-2l-1 6-2 1-1-6 2-16 5-16 5-11 3-11-1-1v-7l5-5v-7l-3-3v-2l-11-1-3-5 4-8v-8l-3-5-5-3-9-1h-5l-2-3 1-7v-15l-3-6-10-5-9-1 1-6 10-15 7-11 3-7-3-1 2-1z" fill="#242289"/>
<path transform="translate(894,1237)" d="m0 0h31l12 3 14 8 13 9 14 12-3 1v2h2v2h-2l-1 4h-4l-2 4h-2v2l-4 1v2l-6 2v2h-4l-1 4-4 4-1 3-8-1-13-4-22-5-13-2-85-1-13-2-3-2-12-3-5-2-9-9-4-5 1-3 25-2 32-6 46-12 23-5z" fill="#FCBCC4"/>
<path transform="translate(895,808)" d="m0 0 10 3 8 4 4 3v2l5 2 10 8 11 10 9 12 7 14 1 3v10l-5 8v7l4 2v5l-2 2-2 11-3 9-3 11-5 30-6 61 1 4-3-1 1-21 1-18v-21h-2l-1 2-2 21-2 11-3 24-8-1-55-15-19-6 1-2 30-10 12-5 16-10 5-6 1-8-2-5-2-16v-6l-5-2-1-5 15-7 11-6 5-2-9-18-3-8-1-9-4-14-5-12-4-13-3-15-2-7-2-1-4-7z" fill="#222289"/>
<path transform="translate(1147,695)" d="m0 0h2l4 15 2 5v6l-4 3-8 17-4 2-2 4-4 1v2h-2v2h-2l-2 4-5 2-1 3-5 4h-2v2l-4 4-4 5-2 5-3 3-5 7h-2l-2 6-5 6h-2v3l-2 1-1 3h-2v2h-2v2h-2v4h-2l-2 5-3 1-1 4-3 3h-2l-2 5-3 4h-2l-2 4-4 5-5 8-2 6-7 12-8 9-9 4-11 5-14 3-8 2h-5l1-2 3-1-9-2v-3l3-5 3-3v-3l5-3 1-2h3l1-4 1-2h2l1-5 3-5h2l2-5 1-2h2v-2l5-5 5-6 5-4 2-4h2v-3h2v-2h2l2-5 8-12 3-3 2-4 4-4h2l2-5 4-6h3l1-6 2-1 4-7 4-4 2-4h2l2-5 2-1 2-4h2l1-4 3-3 4-5 1-3h2l2-5 5-7h2l2-5 4-1 2-4 2-1v9l7-4 7-6 8-7 7-6 2-5 4 1z" fill="#CB7FAF"/>
<path transform="translate(855,797)" d="m0 0h13l18 5 12 5 1 2-3 1 8 13 2 11 2 9 7 21 3 8 2 7 1 9 3 8 4 9 4 7v2l-13 8-17 7v5l5 2 3 22 2 5-1 8-6 7-16 10-12 5-21 7-10 4-3-1v-2l9-2h3l-2-9-1-3 1-3v-11l-2-6-2-7-2-12-5-5v-4l21-2 1-1 13-2 14-3 9-2 1-7h-2v-2h-3l-3-13-3-12-5-13-7-24-5-13-5-18-4-18-4-6-5-5z" fill="#8150A2"/>
<path transform="translate(1154,712)" d="m0 0 10 3 17 8 12 9 8 8 7 11 4 10 2 12-3 14-8 16-9 19-2 6-1 46-3 12-5 8-3 2h-3l-2-2-2-3-3-16-2-10-8-16-3-12-4-13-1-9-3-7h-2l-7 6-6 7-1-4 7-9 4-6h2l1-5 6-11 3-9 2-9v-32l-2-14-2-7z" fill="#232289"/>
<path transform="translate(1181,1160)" d="m0 0 9 6 16 13 12 11 13 13 9 12 8 14 1 4 1 45v62l-1 2-1 26-3 6-2-2-5-12-6-15-5-12-4-16-3-9-3-8-4-16-4-9-6-17-2-7-6-22-5-16-2-13-2-2-1-11h-2l-2-11-3-8v-5z" fill="#CB7FAF"/>
<path transform="translate(581,484)" d="m0 0h10l9 3 8 6 6 10 1 3v13l-3 8-5 6h-2l7 9 13 15 22 28 7 10 7 11 2 1 5 13 6 12v6l-2-1v-2l-5-2-7-11-1-3-2-1v2l-3 1-2 9-2 4h-2v5l-4 6-1 4 3 5 2 4 2 1-1 4-6 2-8 1-2 1v-3l-9-1-10-6-18-18-9-11-6-7-4-3v-2l14-6 16-5h18l13 4 10 5 4 4 4 1-3-7-10-16-12-17-11-13-12-14-6-6v-2h-2l-2-3-7 1h-11l-7-3-1-3v-45l2-4z" fill="#FDC0C7"/>
<path transform="translate(952,1398)" d="m0 0h11l11 4 7 8 9 2-4 1 2 23 11 3v2l16 4 15 5v2l4 1 5 2v4l7 3 15 3v2l7 1-1 9-1 5-4 8-8 8-7 4h-2v2l-11 5-10 3-7 1h-25l3-5 5-5 4-5 1-5-2-9h2l-1-6 2-4h2v-2h2v-2l6-4 1-2h4v-2l4-3-21-6-9-4-7-3h-6l-8 7-10 4h-12l-10-4-7-6-4-7-3-6v-13l2-10 1-3 6-2 9-6z" fill="#C97EAE"/>
<path transform="translate(972,616)" d="m0 0 1 3h9l11 6 3 6v15l-1 7 3 2h8l7 3 5 5 1 2v8l-4 9 3 3 8 1 6 6v7l-3 3h-2v9 4l-3 10-6 14-1 3h-2l-1 7-2 4-4-2-9-7-10-9-10-14-4-6-2-6 1-7 4-7 7-4h8 3l-5-2-5-4-4-16h-2v-7l2-5 4-4 5-3-3 2h-3l-1 3-3 1h-9l-11-5v-2l-5 1v3h-2v3h-2l2 7 4 3 14 2 3 3 1 8-6 7-3 1-2 9h-2l-7-10-4-7v-2h-2l-6-9 1-4 8-17 6-10 4-10 8-9z" fill="#A665A7"/>
<path transform="translate(1106,652)" d="m0 0h4l3 10 3-4 9-4 3 1 1-2 10 18 4 8-1 4-3-3-3 7-5 4-8 4-3 5-4 1-2-18-3-3-4 2-8 10-12 16-7 8-1 2h-2l-2 5-6 8h-2l-2 5-9 11-4 5-1 3h-2l-2 5-11 13-3 5-4 6-3 3h-2l-2 4-7 8-7 9-2 2-3-8-3-10-6-12-5-17-4-16-3-8v-6l3-2 4 2 7 8 14 11h2l3-10h1l-3 24 1 5 2-6 5-5 6-8 4-4 2-5h2v-2h2l2-6 5-6 5-4 7-11 5-6 1-3 5-5 1-2h2v-2l4-1 1-4 3-1 2-5 3-7h2l2-4 6-7 1-3 5-3z" fill="#8251A3"/>
<path transform="translate(845,640)" d="m0 0 5 2 10 7v2h2l7 8 10 15 8 16 9 27 4 17 8 47 3 19 2 9v6l-6-2-8-3-3-3-3-2-5-5-5-6-6-15-2-12-3-13-2-3-2-9-1-1-2-10-2-8h-2l-3-8-3-5-4-11-2-12-1-2-1-13-3-10v-2l-2-3 3-1-2-3v-7z" fill="#CA7EAE"/>
<path transform="translate(885,632)" d="m0 0h17l-3 1 1 2v6l2 1-1 2 2 1-1 3 4 7 5 10 6 18 4 8 4 13 3 7 3 10 2 4 4 17 5 16 6 17 5 11 2 7 4 13 5 10 2 7 2 11 5 13 5 5-1 7-10 11-2 3-2-1 3-4-3-8v-4h-2l-4-10-5-13-2-7-4-11-6-8-2-7-5-12-1-8-2-1-10-25-4-18-1-1-2-11-7-14-1-6-3-9-6-19-7-15-4-12-2-3v-11z" fill="#E593B7"/>
<path transform="translate(1195,1284)" d="m0 0 3 1 2 3 2 9 2 5 2 7 3 8 5 13 6 20 5 13 3 11 5 16 6 11 1 9 1 5 3-1-3 9-4 8-4 10-2 4-5 4-5-12-4-8-5-13-1-3-4-16-2-6v-6l-4-9-7-19-5-10-2-12-2-7-1-1 1-9 6-22 2-10z" fill="#8251A3"/>
<path transform="translate(774,1280)" d="m0 0 15 4 7 3 6 2 28 1h45l7 1 5 5v10l3 10 3 9 3 10 1 1v5l-2 2h-9l-18-4-21-7-21-10-21-14-14-11-14-12-3-3z" fill="#8251A3"/>
<path transform="translate(1081,1025)" d="m0 0h3l-2 5-10 9-4 8-2 12-1 1v12l5 40 1 7v8l-13 7-7 7h-2l-2 5-4 1-2-5-1-13-5-14v-7h-2l-1-8-4-20-2-3-2-15 1-6 3-3 1-3 10-5 14-9 11-6 9-3z" fill="#C97EAE"/>
<path transform="translate(935,967)" d="m0 0 3 1 1 9v12l-2 30v29l5 53 3 22 8 36 10 35 2 2 3-2v5l2 2 10 1v1h-14l10 21 6 12 11 23 10 18 12 19 10 14 13 17 14 17 7 8 12 13 1 2-5-2 1 5h3l3 7 5 7-4-2-4-4v-2l-4-2-11-12-14-14-4-2-4-8-9-10-3-5-5-5-5-7-1-5-5-6-10-18-10-17-14-27-13-33-6-15-8-28-9-39-6-41-2-26-1-28-1-2h2l1-16 2-16 1-3 2-21z" fill="#F5A9BF"/>
<path transform="translate(1073,865)" d="m0 0 2 1 2 6 1 7 1 5v7l7 26 2 9-1 10 3 6v2l-6 3-9 2-7 2-15 1h-24l-16-2-2-2h21l6-3 3-8-1-15-2-14-3-9-1-4-2-6v-4l5-3 7-3 19-9z" fill="#CA7EAE"/>
<path transform="translate(842,651)" d="m0 0 3 3v2l-2 2 3 4 1 8 1 6 1 9 2 8 2 9 5 12 3 5v4h2l4 11 1 7 2 4 2 7 3 10 3 17 6 15v2l3 1 5 5 2 3-6-1-16-5-11-2-1-1-7-1h-24v-1l5-1h22l1-5-4-4-2-6-4-16-4-13-4-8-5-13-4-14-3-15-3-9 8-16 7-15z" fill="#E493B7"/>
<path transform="translate(823,692)" d="m0 0 3 1 3 10 3 17 2 3 4 13 5 12 8 24 1 6 2 6v2l4 2-1 5-2 1h-21l-18 4-13 2-1-8v-26l1-22 4-9 5-18z" fill="#F6A9BF"/>
<path transform="translate(760,914)" d="m0 0h5l5 3 7 3 20 8 18 5v1l-6 1 3 6 5 5 3 19 5 13 1 11-2 6-1 6 4 2h-11l-12-4-13-9-11-7v-2l-4-1v-2l-3-1h2l-3-5 1-5-3-11-3-7-2-2-1-9-2-3-2-16-1-4z" fill="#CB7FAF"/>
<path transform="translate(1152,746)" d="m0 0 1 2 5 1v21l-2 9-3 8-7 15h-2l-2 4-7 10-8 12h-2l-2 4-8 8-12 9-19 11-17 9h-5v-4h2l1-3h2l1-6 4-2 1-5 8-11 3-4 3-6 9-10 9-13h2l2-5 5-5 3-5h2l1-4 3-1 1-3h3l1-5 7-5 4-6 3-4 1-3 5-4z" fill="#F5A8BE"/>
<path transform="translate(1183,1327)" d="m0 0 3 1 3 12 1 7 7 15 5 14 4 10 1 7 3 13 2 9 5 11 8 18 2 4 3-3-2 5-7 12-5 6-6 2-6-6-5-12-8-19-13-39-1-10v-27l1-16 3-9z" fill="#232289"/>
<path transform="translate(894,1237)" d="m0 0h31l12 3 7 4-1 3-10 2-13 3-12 5-13 6h-2v2l-8 3-24 7-17 3h-13l-3-1-11-3-2-3-5-2-9-4 1-3-2-2 2-2 22-5 34-9 28-6z" fill="#CC80AF"/>
<path transform="translate(1148,806)" d="m0 0 3 3 2 6 1 9 5 15 2 10 8 16 3 13 2 13 3 3v2l6-2-4 6-12 12-12 8-5-1-4-12-2-7-4-18-6-15-4-23-5-8-7 1 6-7 1-2h2l2-5 4-4h2l9-10z" fill="#5F419F"/>
<path transform="translate(952,1398)" d="m0 0h11l11 4 7 8 9 2-4 1 1 7v17l1 3h5l5 3 2 1 1 5-11-2-2-1h-6l-8 7-10 4h-12l-10-4-7-6-4-7-3-6v-13l2-10 1-3 6-2 9-6z" fill="#FED4D0"/>
<path transform="translate(581,484)" d="m0 0h10l9 3 8 6 6 10 1 3v13l-3 8-5 6h-2l7 9 13 15 22 28 7 10 2 4-2 1 2 8v7l-4-5-18-27-8-10-12-14-11-12-1-3h-2l-2-3-7 1h-11l-7-3-1-3v-45l2-4z" fill="#FED5D0"/>
<path transform="translate(993,582)" d="m0 0 1 2h5l5 6 3 3 2 5 1 8 2 2 3 9 2 4 3 4 6 3 1 3-2 4-3 3 4 3 1 6 2 5 1 9 4 8 3 8 2 5v3l3 1v7l-5 10-7 10-4 10-1-4 2-7-1-1v-7l5-5v-7l-3-3v-2l-11-1-3-5 4-8v-8l-3-5-5-3-9-1h-5l-2-3 1-7v-15l-3-6-10-5-9-1 1-6 10-15 7-11z" fill="#60419F"/>
<path transform="translate(1201,1176)" d="m0 0 4 2 13 12 13 13 9 12 8 14 1 4 1 45v51l-1 9h-1l-1-17h-2l-1-7-4-10-1-6-2-4-3-13-1-5h-2l-3-5-2-7-4-11-4-14-1-1-1-7-8-24-3-14-1-4v-2h-2l-4-9z" fill="#E593B7"/>
<path transform="translate(1160,778)" d="m0 0 6 2 4 8v5l2 4 2 7 4 12 1 5 3 6v2l3 1 3 5 2 1v-5h1v43l-3 12-5 8-3 2h-3l-2-2-2-3-3-16-2-10-8-16-3-12-4-13-1-9-3-7h-2l-7 6-6 7-1-4 7-9 4-6h2l1-5 5-10 1 3h2l2-5 3-6z" fill="#362C9B"/>
<path transform="translate(691,703)" d="m0 0 15 1 17 5 5 2 4 4 2 10 2 4 4 4 5 18 8 20 8 17 2 9 3 7-4 2-10-6-9-9-11-15-6-9-6-7-8-7-1-3-5-1-1-2-1-18h-2l-4-14-5-7-2-1z" fill="#F5A8BE"/>
<path transform="translate(1094,853)" d="m0 0 8 2v2l3 1 1 7 1 4 1 6 1 7 2 12 3 6 3 10 1 8 1 1 2 15v2l-8 1v2l4 1-10 2-20 5-3-1 5-3-2-5-1-3 1-11-7-25-2-9v-10l-1-1-1-7-2-6 3-3 16-9z" fill="#A463A6"/>
<path transform="translate(1179,1395)" d="m0 0 2 4 6 20 9 24 6 13 2 5v3l3 1 1 5-1 1-36 4-18 1h-22l-32-3v-2h-7l-11-2-1-2 5-2h75l30-1 11-1-9-5-19-10-14-6-6-2-5-2-7-2-16-11-4-3v-2h-3l-1-2-3-1v-2l-4-1-8-5-3-2h12l8 4 3 4 12 6 10 7 8 5 8 4 3-10 6-10 9-10h2z" fill="#774CA1"/>
<path transform="translate(1106,735)" d="m0 0h2v7l-8 22-13 24-6 10-5 9h-2l-2 4-9 13-8 10-12 14-17 17h-2l-2 4-12 9-9 6-9 2 2-6 3-1 1-4 5-5 7-8 5-5 5-9 6-7 2-4 3-2 3-5h2v-3l2-1 2-4 3-3 1-2h2l2-5 3-5 3-2 2-4h2l2-4h2l1-5 3-2 2-5 4-5h2l2-7 2-1 3-5 3-4h2l2-4 3-5h2l-1-3h2l1-4 4-1 1-4 3-5h3z" fill="#F5A8BE"/>
<path transform="translate(933,949)" d="m0 0h2l-3 27-3 23-2 21-2 5-9-1-51-14-19-6 1-2 30-10 12-5 16-10 15-13 10-10z" fill="#25035D"/>
<path transform="translate(895,808)" d="m0 0 10 3 8 4-3 1 6 9v3h2l4 6 4 17 5 12 3 6 6 22 2 11 1 4-1 3-15 10 5 5v22l-1 5-3 2-5 9-7 7-6 5-2-1 3-5-1-9-1-1-2-16v-6l-5-2-1-5 15-7 11-6 5-2-9-18-3-8-1-9-4-14-5-12-4-13-3-15-2-7-2-1-4-7z" fill="#342B9B"/>
<path transform="translate(840,796)" d="m0 0h21v1l-5 1 7 8 2 3 4 18 6 22 4 9 8 26 5 14 4 20v2h3v2h2l1 4-2 3-16 5-10 2h-5l4-2 10-2v-7l-3-4-5-17-2-7-5-13-3-12-3-4-3-11v-4l-2-1-2-7-4-9-5-20-2-4-2-8-3-7z" fill="#A463A6"/>
<path transform="translate(722,889)" d="m0 0 10 4 15 9 9 6 14 7 9 4 15 7-3 1-16-7-11-5h-4l2 14 2 8 1 1 1 9 4 5 3 12 1 3-1 6 3 5v2l4 2-11-2-15-2-5-4v-2l-3-1-4-9v-7l-5-10-2-11-6-15-7-14-2-1v-13z" fill="#E593B7"/>
<path transform="translate(994,1111)" d="m0 0 2 1v2l2 1v4l1 9 3 10 3 7 3 14 3 9 4 9 1 8 4 1 9-5 5-5 5-1v-2h3v-2l4-1 2-4 11-6 7-6h2l-1 8-7 11-9 9-16 9-21 7-25 4h-19l-3-3 1-5 11-9 5-5 6-9 3-14v-38z" fill="#60429F"/>
<path transform="translate(802,756)" d="m0 0h1v44l6-2h5l2 4 3 3 3 8 3 14 4 15 4 10 6 16 8 24 4 18 1 2 1 10 3 5 5 3 1 5-9 3h-25l-5-1v-1h17l5-1-1-6-4-2-2-5v-5l-3-5-2-5-2-8-2-7-4-15-4-10-4-13-3-6-3-9-2-8-5-19-1-3v-7l-5-1 4-1-2-14v-15z" fill="#E493B7"/>
<path transform="translate(1e3 895)" d="m0 0h7v6l-1 4 4 11 2 7 2 20v2h2l-1 3h-9l-9-3-16-8-9-6-10-9-9-8v-7l6-7 16-2 22-2z" fill="#F4A7BE"/>
<path transform="translate(1023,1057)" d="m0 0 3 1-1 5 2 15 2 4 4 18v8h2l3 14 3 7 1 15 1 2 4-1 2-4 8-7 8-5 6-2 1 3v10l-8 3-11 8-5 4-2-1-1 4-6 7-5 3-5-5-2-10-9-36-4-11-1-6-2-9 1-7-2-1 1-3-1-3-4 1 2-4 8-10z" fill="#A564A7"/>
<path transform="translate(876,802)" d="m0 0h10l12 5 1 2-3 1 8 13 2 11 2 9 7 21 3 8 2 7 1 9 3 8 4 9 4 7v2l-13 8-9 3 3-3h2l-1-7-2-1-8-25-5-17-6-18-3-7-5-18-2-13-4-8-3-4z" fill="#5F419F"/>
<path transform="translate(1106,652)" d="m0 0h4l3 10 3-4 9-4 3 1 1-2 7 12v2h-6l-4 3h-2v2l-7 4-3-1-2-9h-4v2l-4 2-2 4h-2l-1 4-3 2-2 4h-2l-1 4-5 5-7 10-6 9h-2l-2 5h-2l-2 5-3 5-4 1-1 5-5 5-8 11-8 10-10 14-5 4-5 2-1 4-1 3-3 1-1-1v-19l1-7h-2l-2-4 2-2h4v16l1 1 2-6 5-5 6-8 4-4 2-5h2v-2h2l2-6 5-6 5-4 7-11 5-6 1-3 5-5 1-2h2v-2l4-1 1-4 3-1 2-5 3-7h2l2-4 6-7 1-3 5-3z" fill="#5F419F"/>
<path transform="translate(808,934)" d="m0 0h11l9 3h35v1l-9 1h-12l1 4 5 5 3 17 2 3 1 8v9l-1 4 2 3v7l-10 2h-2v2h-16l-5-1 1-9 2-4-1-11-5-13-3-19-5-5z" fill="#A564A7"/>
<path transform="translate(1111,716)" d="m0 0h1v9l-3 14-1-4h-2v2l-4 2-2 4-1 3-3 3h-2l-1 5h-2l-2 5-9 10-2 4h-2l-2 7-5 5-3 6-3 3-1 3-6 5-3 5h-2l-2 5-3 5h-2l-2 5-2 1-2 4h-2v3l-3 2-3 5h-2l-2 6-3 1-2 4-6 10-3 4h-2l-2 4-8 9h-2l-1 4-3 2-1 4 6-1-4 3-7 4-6 2h-6v-3l3-5 3-3v-3l5-3 1-2h3l1-4 1-2h2l1-5 3-5h2l2-5 1-2h2v-2l5-5 5-6 5-4 2-4h2v-3h2v-2h2l2-5 8-12 3-3 2-4 4-4h2l2-5 4-6h3l1-6 2-1 4-7 4-4 2-4h2l2-5 2-1 2-4h2l1-4 3-3 4-5 1-3h2l2-5 5-7h2l2-5 4-1 2-4z" fill="#E593B7"/>
<path transform="translate(745,713)" d="m0 0 14 3 3 3 11 5 14 8 12 8 4 3v13l-2 15v15l1 14-9 2h-6v-2l-3-1-4-13-6-16-2-10-2-9-4-9-1-8v-6l-2-5-4-2-9-3-1-3-4-1z" fill="#CA7FAF"/>
<path transform="translate(1177,1352)" d="m0 0h1v32l2 17v6l-5 4-8 10-4 8-2 6-1 2-5-2-8-4-18-12-8-4-5-5-5-2h-8l-6-7-11-9-7-7-6-8-2-3v-4h-3l-1-5 6 2 15 15 16 14 3 5 9 5 7 7 6 3 7 4h3l1-6 3-7 6-5 9-14 5-9 4-3 4 1 4 2v-23h2z" fill="#C87DAE"/>
<path transform="translate(889,561)" d="m0 0 8 1 6 3 1 2 4 2v2h2l1 7h2l4 10-4 1-2 8-6 8-12 6-9-1-10-5-3-3v-2h-4l-2-8v-11l4-8 6-7 8-4z" fill="#FCBEC5"/>
<path transform="translate(985,691)" d="m0 0h8l7 3 5 6 6-2 2 3v6l1 1v8l2 1 2 8h-2l1 3 2 1-1 10-1 3h-2l-1 7-2 4-4-2-9-7-10-9-10-14-4-6-2-6 1-7 4-7z" fill="#CA7EAE"/>
<path transform="translate(701,751)" d="m0 0h1v32l1 5h12l13 4 9 2 10 5 8 5 4 2v2l4 1v2h-2v2l-18 7-34 11-2-1-3-8-4-17-1-10v-22z" fill="#A564A7"/>
<path transform="translate(972,616)" d="m0 0 1 3h9l9 6 4 7v11l-2 5-5 4h-3l-1 3-3 1h-9l-11-5v-2l-5 1v3h-2v3h-2l2 7 4 3 14 2 3 3 1 8-6 7-3 1-2 9h-2l-7-10-4-7v-2h-2l-6-9 1-4 8-17 6-10 4-10 8-9z" fill="#E594B7"/>
<path transform="translate(1188,1310)" d="m0 0h3l4 12 3 5 4 10 5 15 9 29 6 22 8 20 1 1 1 7 4 2-2 6-3 6-5 4-5-12-4-8-5-13-1-3-4-16-2-6v-6l-4-9-7-19-5-10-2-12-2-7-1-1 1-9z" fill="#5F409F"/>
<path transform="translate(663,606)" d="m0 0 3 3 5 9 8 14 10 19 7 17 6 12 4 14-1 6-1 2 8 3-3 1-13-2-5-1-1 2-3-3 4-1h7l-6-16-5-11-11-23-4-6v-3h-2l-2-3 1 16-4 3-13 5-8 3-10 2-1 5-1-4 3-4 11-2 3-1 1-3-3-1-3-5-2-4 1-4 4-6 1-5h2l2-9 2-5h3v-2l3 1 5 10 8 8-1-7-7-14-2-5z" fill="#29258B"/>
<path transform="translate(1181,1330)" d="m0 0 1 2-3 9-2 15h-2v23l-8-2-4 2-2 6-8 12-5 7h-2l-1 3-2 1-4 12-4 1-7-5-6-3-7-7 2-1 2 1v2h2v2l4-2 2-5h2l2-7h2l2-4 10-19 6-9h2l1-5 3-6 4-4 3-5h2l2-5 6-5h6z" fill="#E492B6"/>
<path transform="translate(959,1255)" d="m0 0 5 2 14 12-3 1v2h2v2h-2l-1 4h-4l-2 4h-2v2l-4 1v2l-6 2v2h-4l-1 4-4 4-1 3-8-1-13-4-22-5-13-2-85-1v-1l62-2h19l21 3 12 1 2-4 5-6 9-6 15-12h2v-2h2v-2l5-1z" fill="#F4A7BE"/>
<path transform="translate(800,1288)" d="m0 0 90 1 17 3v2l6 1v2h2l1 14 3 9v10l2 6v5l15 5v1h-21l-21-3 2-3v-5l-3-6-3-13-3-6-1-11-1-6-3-2-7-1h-51l-22-1z" fill="#A664A7"/>
<path transform="translate(1183,1327)" d="m0 0 3 1 3 12 1 7 7 15 5 14 4 10 1 7 3 13 2 9 5 11 8 18 2 4 3-3-2 5-4 7-5 2-4-5-3-6-2-2-7-20-8-24-1-6-4-12-5-16-3-15v-16l-3 14h-1v-10l3-9z" fill="#352B9B"/>
<path transform="translate(894,1237)" d="m0 0h31l12 3 7 4-1 3-10 2-13 3-12 5-13 6-13 1-10-3-4-2-7-3-2-1v-2l-4-1v-2l-5-1 4-4 32-7z" fill="#8352A3"/>
<path transform="translate(900,928)" d="m0 0 2 1v5l5 2 3 22 2 5-1 8-6 7-16 10-6 3-2-1 7-5-1-5-3-6-2-2-3-16-2-13-1-7 1-2 14-3z" fill="#5E409E"/>
<path transform="translate(1117,638)" d="m0 0 5 5 6 9v3l-6 1-7 4-1 5-2-3-2-10-5 2-7 9-4 1-1 4-8 10h-2l-1 5-4 7-3 2-1 3-4 1v2h-2l-2 5-4 2-1 4-8 11-4 7-6 4-6 10h-2l-1 4h-2l-1 4-3 1-2 5-8 10h-2l-1 6-2 1-1-6 1-12h1v6h2l2-6 4-8h2l1-4 6-7 2-1 1-3 5-5 3-6h2l1-5 2-1 3-5 4-6h2l1-4h3l2-5 2-1 4-7 5-5 1-3 5-5 6-9 2-1 2-4h2l2-5 6-7 1-3 4-3 6 2 8-1z" fill="#342B9B"/>
<path transform="translate(654,599)" d="m0 0 4 2 3 5 2 1 5 13 6 12v6l-2-1v-2l-5-2-7-11-1-3-2-1v2l-3 1-2 9-2 4h-2v5l-4 6-1 4 3 5 2 4 2 1-1 4-6 2-8 1-2 1-6-12-5-6v-3l-2-1v-3l-4-2-3-3v-4l-4-1v-2h-2l-1-5 1-2h9l12 6 3 2v2l3-1 2-7 1-2h2l1-5 6-3 4 1 2 2 4 1-1-11-2-8z" fill="#CB7FAF"/>
<path transform="translate(1077,1028)" d="m0 0 4 1-9 10-4 8-2 12-1 1v12l4 33v5l-2-2-5 4-3-1v2l-7 1-2-2-4-13-2-12v-14l3-11 8-14v-5l5-4 4-4 7-2v-2l5-1z" fill="#F4A8BE"/>
<path transform="translate(997,562)" d="m0 0h2l3 6 8 10 7 1v1l-5 1 9 11 1 2-4-1v6h2l3 6 2 6 4 16v2l3 1 4 14 2 4 3 16 1 4h2l5 13-3 7-4 8-2 1 1-6v-5l-2-1-2-7-3-4-3-10-2-5-2-10-3-9-4-3 5-2 1-5-3-3-4-2v-2l-3-1-1-4-3-5-2-6-1-1-1-8-2-6-7-7-5-1v-4l-3-1 2-1z" fill="#342B9A"/>
<path transform="translate(935,967)" d="m0 0 3 1 1 9v12l-2 30v29l5 53 3 22 1 4v8l-5-1-1 2v-3l-2-1-4-21-4-29-2-26-1-28-1-2h2l1-16 2-16 1-3 2-21z" fill="#F6ABBF"/>
<path transform="translate(1210,1183)" d="m0 0 7 6 14 14 9 12 8 14 1 4 1 45v48h-1l-2-36-2-4-1-10-2-6v-5l-2-1-3-12-4-10-4-7v-3h-2l-5-15-3-12-3-7-1-4 1-4h-2l-4-5z" fill="#F6ABC0"/>
<path transform="translate(703,729)" d="m0 0 2 3 1 15 5 3 4 5 3 2v2l4 2 8 10 8 12 9 11 9 8 10 7-2 3-3-1h2v-2l-4-1v-2l-4-1-5-3-8-5-10-3-12-3-5-2h-12l-2-6v-22z" fill="#C97DAE"/>
<path transform="translate(797,1259)" d="m0 0 4 1 2 2-1 2 14 7 3 3 11 2 5 1h9l17-3 10-3 3 1-8 3-3 1h-7v2l-10 3-28 4h-11l-17-2-6 1-11-3-10-10-4-5 1-3 25-2z" fill="#E493B6"/>
<path transform="translate(774,1280)" d="m0 0 15 4 7 3 6 2 22 1 9 1 4 11 5 13-1 7-2 2v3l-5-1-16-9-17-12-11-9-13-11-3-3z" fill="#352B9B"/>
<path transform="translate(997,1297)" d="m0 0 5 3 3 3v2l5 2 9 12 11 13 7 9 1 4-8-2-20-7-1-3-6-2-20-11-6-3-1-4 3-5 4-1v-2z" fill="#8452A3"/>
<path transform="translate(830,1290)" d="m0 0h23l4 2 3 4 2 9 3 8 2 8 1 8 1 7-1 2-7-1-19-7-4-3 1-5h2v-7l-6-15-2-9z" fill="#60419F"/>
<path transform="translate(1179,1395)" d="m0 0 2 4 3 11 2 10 2 6v4l-7 5-3 7-1 5h-7l-11-5-6-2-5-2-7-2-16-11-4-3v-2h-3l-1-2-3-1v-2l-4-1-8-5-3-2h12l8 4 3 4 12 6 10 7 8 5 8 4 3-10 6-10 9-10h2z" fill="#A363A6"/>
<path transform="translate(1018,593)" d="m0 0 5 1 8 10 10 13 1 6 3 10 5 15 8 20v9l-7 8h-2l-2 4-3 3 2-5 2-7-4-10v-2h-2l-3-9-3-13-2-7-3-9-3-3-3-10-1-6-4-9v-3h-2z" fill="#232289"/>
<path transform="translate(951,1308)" d="m0 0 10 1 6 3 7 2 6 4 16 8 8 5 6 2v2l-7-1-3 3-13 3-16 3h-7l-6-3v-8l-5-10-2-5-1-7z" fill="#E493B7"/>
<path transform="translate(789,668)" d="m0 0h8l7 3 7 8v14l-5 8-8 4h-10l-8-4-4-6-1-3v-9l5-10 3-3z" fill="#FED5D0"/>
<path transform="translate(986,1430)" d="m0 0h1l1 6 11 3v2l16 4 15 5v2l4 1 5 2v4l7 3 4 2-12-1-5 4-2 6-1 8-15 8-5 5-5 4-1-10-1-4h2l-1-6 2-4h2v-2h2v-2l6-4 1-2h4v-2l4-3-21-6-9-4 4-1 1-4-12-4-2-3z" fill="#8251A3"/>
<path transform="translate(1181,725)" d="m0 0 4 1 9 7 7 7 7 11 4 10 2 12-3 14-4 8h-2l-1-3-2-2-2-5-5-11-2-7-5-15-3-6-3-14z" fill="#27045E"/>
<path transform="translate(939,1132)" d="m0 0 2 1 3 1 2 1 1-3 6 27 10 35 2 2 3-2v5l2 2 10 1v1h-14l10 21 6 12v2h-2l2 8 3 4v3l2 3v5l3 2-1 4h-2l-15-29-13-33-6-15-8-28-6-25z" fill="#FDC0C6"/>
<path transform="translate(1156,769)" d="m0 0h1v8l-4 10-7 15h-2l-2 4-7 10-8 12h-2l-2 4-8 8-12 9-9 5-4-1 5-6 2-4 2-1 2-4 4-3h2l1-4 6-9h2l1-4h2v-2h2l4-8 2-1 4-7h2l2-5 5-5 6-8 2-5 3-4h2l1-3z" fill="#FCBDC4"/>
<path transform="translate(927,916)" d="m0 0v3l5 5v22l-1 5-3 2-5 9-7 7-6 5-2-1 3-5-1-9-1-1-2-16v-6l-5-2-1-5 15-7z" fill="#332A9A"/>
<path transform="translate(637,837)" d="m0 0 5 4 4 6 12 12 8 7 9 10 8 14 3 6 3 12 2 9h-4l-11-12-11-14-10-15-12-23-6-14z" fill="#290762"/>
<path transform="translate(1131,1121)" d="m0 0 4 1 11 10 11 9 9 7-2 8v6l3 13 1 5 3 10 1 5-6-1-1-6h-2l-4-8v-2h-2l-4-10v-2h-2l-5-8-3-9-4-3-3-7-4-10z" fill="#8653A3"/>
<path transform="translate(1096,764)" d="m0 0 2 1-4 10-9 16-4 7-5 9h-2l-2 4-9 13-8 10-12 14-17 17-4 1v-5l2-1 1-3h2l2-4 7-10 7-8 2-4h2l2-4 6-9 7-8 1-3h2l1-4 5-6 1-2h2l1-4 3-4h2l1-4h2l1-6 5-5h2l1-4z" fill="#FCBCC4"/>
<path transform="translate(598,531)" d="m0 0h9v2h-2l7 9 13 15 22 28 7 10 2 4-2 1 2 8v7l-4-5-18-27-8-10-12-14-11-12-1-3h-2l-2-3-9-1-1-4 3-3z" fill="#F7AEC0"/>
<path transform="translate(805,740)" d="m0 0 2 2 1 4 4 5 2 1 1 8 2 3 3 7 1 10 3 6v5l-10 6h-5v2l-6 1-1-8v-26l1-22z" fill="#FCBDC4"/>
<path transform="translate(630,608)" d="m0 0h6l12 6-5 4h-3l-1 5-2 2-2 7-4 1v-2l-5-2-10-5-9-1v7h2l1 2 3 1 2 5 5 4v3l3 1 1 4 7 10 1 4-8-1-1-4-4-5-2-4-5-4-1-3-3-3-5-7v-3h-2v-2h-2l-1-5-2-1 10-2h10l8-1 2-7 4-3z" fill="#F5A7BE"/>
<path transform="translate(946,929)" d="m0 0h2l-1 18-3 17-6 61 1 4-3-1 1-21 1-18v-21h-2l-1 2-2 21-2 11-3 24h-5l2-2 2-14 3-28 4-30 4-10z" fill="#8E58A4"/>
<path transform="translate(1067,1468)" d="m0 0h1l-1 9-1 5-4 8-8 8-7 4h-2v2l-11 5-10 3-7 1h-19v-1l13-3 9-5 7-2 1-3 6-3h2v-2l7-3 19-14 4-5z" fill="#8150A2"/>
<path transform="translate(967,1262)" d="m0 0 4 1 7 6-3 1v2h2v2h-2l-1 4h-4l-2 4h-2v2l-4 1v2l-6 2v2h-4l-1 4-4 4-1 3-8-1-13-4-8-2v-1l15 1 3-1 1-3h2v-3l13-8 3-3 9-6 7-2v-4h-2z" fill="#E593B7"/>
<path transform="translate(760,1263)" d="m0 0h15l5 4v3l6 3v2l12 4 22 2 21-2 10-2 4-2 16-4 3 1-8 3-3 1h-7v2l-10 3-28 4h-11l-17-2-6 1-11-3-10-10-4-5z" fill="#F0A5BD"/>
<path transform="translate(774,1280)" d="m0 0 15 4 7 3 6 2 16 2v24l-4-1-13-9-11-9-13-11-3-3z" fill="#28258B"/>
<path transform="translate(977,625)" d="m0 0h7v2l5 2 1 1 2-3 2 3v10l-3 7-2 1 2-10-2-1-2 4-1 7-6 4-8-1-6-5-2-7 2-5h-2v-2l6-4h4z" fill="#FED4CF"/>
<path transform="translate(1e3 656)" d="m0 0h7l6 4 3 5v8l-5 5-5 4h-9l-6-4-2-4v-7l2-6h2v-2z" fill="#FCCECD"/>
<path transform="translate(1009,1313)" d="m0 0 7 5v2l4 2 4 5 8 7 6 9v2l-8-2-20-7-1-3-6-2-7-4-2-5 4-3 7-1v-2z" fill="#28258B"/>
<path transform="translate(850,1246)" d="m0 0 2 1-1 1 4 2v2l4 1v2l9 3h3l1 2 7 2 8 1 4 1-13 5-3 1h-15l-8-5v-2l-5-1-8-4-1-4h-10l3-3z" fill="#A564A7"/>
<path transform="translate(990,1174)" d="m0 0 3 4 2 3v3h2l3 9 2 5h-2v2l-11 2h-19l-3-3 1-5 11-9 10-10z" fill="#382D9B"/>
<path transform="translate(1015,1465)" d="m0 0 2 1-5 4h-2v2h-2v2h-2l-1 10v4l1 7-3 6-6 7h-2l-1 4h23l10-2 10-3 5-3h3v-2l10-6 7-7 3-7v-5h2l1-3-1 9-6 12-5 5-8 6-16 6-14 2-20 1-9 1v-4l4-4-2-9 2-9 9-14 7-7z" fill="#392D9B"/>
<path transform="translate(1180,1466)" d="m0 0h17v3l-15 2v2l-25 1h-37v-2l-15-2-2-2 5-1z" fill="#BD75AC"/>
<path transform="translate(987,692)" d="m0 0 8 1 5 5 2 4-1 9-5 5-3 1h-10l-6-5-2-4 2-9 5-5z" fill="#FED3CF"/>
<path transform="translate(887,575)" d="m0 0h8l3 3 2 5 1 3-1 6-4 4-8 3-9 1-5-7 1-12 5-5z" fill="#FED4CF"/>
<path transform="translate(961,900)" d="m0 0 10 1v2l5 1 2 2v10h-2l5 12v6l-7-3-10-9-9-8v-7z" fill="#F9B9C3"/>
<path transform="translate(894,1237)" d="m0 0h31l12 3 7 4-1 3-10 2-9 2h-7v-2l-7 1-4-4-6-2-10-2-3-3z" fill="#372C9B"/>
<path transform="translate(701,751)" d="m0 0h1v47l2 16 9-2 6 1 13 2 4 5v2l-27 9-2-1-3-8-4-17-1-10v-22z" fill="#7B4DA2"/>
<path transform="translate(972,616)" d="m0 0 1 3h9l9 6 1 2-2 4-6-4v-2h-7l-1 2-3 3-4-1-3 3h-2v2h2l-1 7 3 6 4 3 8 1 5-3 1-7 3-4 3 1-1 7 2-5 1-8h1v11l-2 5-5 4h-3l-1 3-3 1h-9l-5-2-5-5-5-7 6-15 8-9z" fill="#FABAC4"/>
<path transform="translate(989,1285)" d="m0 0 4 1 3 3v2l3 1 9 12-1 2-5-5-5-3-9 5-5 2v2l-4 2-2 6h-3l-7-4v-8l7-7 11-7z" fill="#A866A7"/>
<path transform="translate(1033,1324)" d="m0 0 4 2 11 13 8 10 16 17h-3l-2-1 1 5h3l3 7 5 7-4-2-4-4v-2l-4-2-11-12-14-14-4-2-2-6 5 1-7-8-2-8z" fill="#E595B8"/>
<path transform="translate(588,618)" d="m0 0 23 1 1 2-14 1 1 6h2v2h2l4 7 2 5 3 1 3 5 4 3 3 5 1 3 2 1-1 2-6-2-10-9-12-12-9-11-2-7z" fill="#F6ABC0"/>
<path transform="translate(909,777)" d="m0 0 2 1 3 8 2 4 4 6 1 4 4 12 3 3v3l4 2 4 5v4h2v4l-5-1-8-7-8-5v-2l-4-2-4-31z" fill="#F9B9C3"/>
<path transform="translate(654,620)" d="m0 0h2l3 9v11l-2 5v5l5 6h-2l-2 5-14 5-10 2-1 5-1-4 3-4 11-2 3-1 1-3-3-1-3-5-2-4 1-4 4-6 1-5h2l2-9z" fill="#8150A2"/>
<path transform="translate(929,829)" d="m0 0 4 2 10 9 9 12 7 14 1 3v10l-5 8h-2l-3-10-3-12-4-10-1-5-2-1-6-12-5-6z" fill="#26045F"/>
<path transform="translate(649,620)" d="m0 0h5l-2 10-2 4h-2v5l-4 6-1 4 3 5 2 4 2 1-1 4-6 2-4-1v-6l-5-8-5-7-2-1-3-6 1-5 5 2 2 1v2l4 2 5 2 3-11z" fill="#A564A7"/>
<path transform="translate(982,1412)" d="m0 0h8l-4 1 1 7v17l1 3h5l5 3 2 1 1 5-11-2-2-1h-6l-8 7-10 4h-12l-10-4-6-5 2-1 5 3v2h11l3-5 12 1 7-2 1-3 6-1-1-4 1-11-2-5 1-2h2z" fill="#F9B9C3"/>
<path transform="translate(981,603)" d="m0 0 6 2 2 6 3 1 2 5-1 1 3 3 1 4 1 9 5 8 1 9 2 1h-2v3l-8 1-2-3 1-7v-15l-3-6-10-5-9-1 1-6z" fill="#8955A3"/>
<path transform="translate(813,626)" d="m0 0 7 1 3 5v10l-4 5-6 3h-6l-6-4-2-3v-6l5-5z" fill="#FCBEC6"/>
<path transform="translate(698,714)" d="m0 0 4 1 4 10 6 3 6 15 3 5 7 16 6 11-1 2-7-10-6-7-8-7-1-3-5-1-1-2-1-18h-2z" fill="#E190B6"/>
<path transform="translate(734,622)" d="m0 0h6l4 3v2h2l1 2v9l-3 3h-2l-1 4h-10v-2l-4-2-3-3v-9l4-5z" fill="#F5B4C2"/>
<path transform="translate(1099,1407)" d="m0 0h12l8 4 3 4 12 6 10 7 8 5v2l5 2v2l7 2 9 5-3 1-11-5-6-2-5-2-7-2-16-11-4-3v-2h-3l-1-2-3-1v-2l-4-1-8-5z" fill="#8151A2"/>
<path transform="translate(934,617)" d="m0 0 8 1 5 4 2 5-1 6-5 6-3 1h-7l-6-5-2-5 1-6 4-5z" fill="#FDBEC5"/>
<path transform="translate(1034,1483)" d="m0 0h7l-2 5-5 1v2l-4 3h-6v2h-2v2l-7 3-10 7-3 3-4 2h-6l3-5 5-5 4-5 8-7h2l1-3 8-4z" fill="#EB9FBB"/>
<path transform="translate(1030,1451)" d="m0 0 8 1 7 2v2l9 1 6 2 23 2 5 1 35 2v1l-38 1-4 2 18 3v1h-8l-18-4-6-2v2l-6-1v-2l-11-1-10-3-3-3 2-3-9-3z" fill="#25238A"/>
<path transform="translate(1144,1437)" d="m0 0 7 1 7 3 10 4 21 10 12 7 1 2-12 1-30 1h-34v-1l26-1 35-1-19-10-20-12z" fill="#28258F"/>
<path transform="translate(1184,1413)" d="m0 0 2 3 9 25 1 8-1 4h-2l1 4-5-1-16-8 4-1v-5l4-8 5-4h2l-4-13z" fill="#7E4FA2"/>
<path transform="translate(935,967)" d="m0 0 3 1 1 9v12l-2 30-1 9-1-4h-4l-1 3h-4l2-1 1-16 2-16 1-3 2-21z" fill="#C97EAE"/>
<path transform="translate(886,1238)" d="m0 0 4 1-2 1 5 2 9 1 8 5v2l7-1v2l3 1-12 5h-11l-3-3-9-6-11-5v-2z" fill="#61429F"/>
<path transform="translate(974,1317)" d="m0 0 6 1 16 8 8 5 6 2v2l-7-1-3 3-7 2h-5l-2-6-5-2-5-3-3-3v-6z" fill="#F5A8BE"/>
<path transform="translate(1041,620)" d="m0 0 3 1 10 18 6 16 3 13v3l2 1-3 4h-2l-2 4h-2l1-3v-9l-5-12-4-11-4-12-3-10z" fill="#290761"/>
<path transform="translate(657,618)" d="m0 0 3 1 5 10 7 11v2h-2l-2-3 1 16-4 3-7 2 2-5-4-6 1-6 1-3v-11l-2-9z" fill="#242189"/>
<path transform="translate(950,1399)" d="m0 0 4 1-1 5-4 4-6 3h-2l-2 5h-2l-1 3-3 7-2 1 4 13-1 4-3-5-3-6v-13l2-10 1-3 6-2 9-6z" fill="#F4B6C2"/>
<path transform="translate(605,620)" d="m0 0 10 2v1h-8v7h2l1 2 3 1 2 5 5 4v3l3 1 1 4 7 10 1 4-8-1-1-4-4-5-2-4-5-4-1-3-3-3-5-7v-3h-2v-2h-2l-1-5-2-1z" fill="#E593B7"/>
<path transform="translate(962,1211)" d="m0 0 6 2-1 3h2l3 5 1 3 4 1 5 11v2h-2l2 8 3 4v3l2 3v5l3 2-1 4h-2l-15-29-10-25z" fill="#FDBFC5"/>
<path transform="translate(663,606)" d="m0 0 3 3 5 12 6 10 9 19 4 10v5l-6-3-3-5-13-22 1-2 4 4-1-7-7-14-2-5z" fill="#774CA1"/>
<path transform="translate(1031,692)" d="m0 0h1v7l-3 3h-2v9 4l-3 10-5 12-1-4 1-4-3-1 1-4-3-8-1-8-1-4 1-3 4-1 1 3h8v-2l4-3z" fill="#A464A7"/>
<path transform="translate(1e3 1306)" d="m0 0 8 3 6 9 7 8-1 2-6-7-8-7-5 2v2l-9 3v3 2l-6-2-4-2-1-4 5-5 6-4z" fill="#6745A0"/>
<path transform="translate(637,578)" d="m0 0h5l8 11 6 10-2 1 2 8v7l-4-5-18-27v-3z" fill="#F6ACC0"/>
<path transform="translate(1046,1067)" d="m0 0h1l-1 16 4 19h4l9-3 4 2 2 4v5l-2-2-5 4-3-1v2l-7 1-2-2-4-13-2-12v-14z" fill="#E593B7"/>
<path transform="translate(1067,1365)" d="m0 0 6 2 15 15 8 7 7 6h-3l-7-4v3l-3 1-10-9-7-9-2-3v-4h-3z" fill="#CF82B0"/>
<path transform="translate(654,599)" d="m0 0 4 2 3 5 2 1 5 13 6 12v6l-2-1v-2l-5-2-7-11-1-3-2-1-1 2-1-12-2-8z" fill="#9D60A6"/>
<path transform="translate(997,721)" d="m0 0 3 1 2 4 1 14 5 3 1 6-7-2-13-12v-5l5-7z" fill="#E391B6"/>
<path transform="translate(986,1430)" d="m0 0h1l1 6 11 3v2l16 4v2h2v2l4 1 3 2v2l-4 1-16-2-9-4 4-1 1-4-12-4-2-3z" fill="#965CA5"/>
<path transform="translate(982,1183)" d="m0 0 4 4v7l-1 7-2 1h-13l-3-3 1-5 11-9z" fill="#24238A"/>
<path transform="translate(669,617)" d="m0 0 4 4 8 14 11 23 3 7v8l-2 2h-5l-9-17-6-12-1-4 4 5 9 15 4 2-1-7-6-14-8-16-5-8z" fill="#332A9A"/>
<path transform="translate(1122,1468)" d="m0 0h42l12 1-3 1v2l-7 1h-40v-2h-6l-1-2z" fill="#F4A7BE"/>
<path transform="translate(889,561)" d="m0 0 8 1 6 3 1 2 4 2v2h2l1 7h2l4 10h-5l-5-9 1-4h-3l-5-7-4-2h-14l-7 3-4 6-1 3h-2l-1 18-2-4v-11l4-8 6-7 8-4z" fill="#B879AF"/>
<path transform="translate(1067,1468)" d="m0 0h1l-1 9-4 4-3 4h-3l-1 3-5 2-8 6-9 5-16 9-6 2h-9v-1l8-2 9-5 7-2 1-3 6-3h2v-2l7-3 19-14 4-5z" fill="#A362A6"/>
<path transform="translate(1055,680)" d="m0 0 1 3-4 9-3 1-2 4h-2l-1 4-6 8-4 7-3 4h-2l-2 5-2 1 1-6 5-10 12-17 6-8z" fill="#25025D"/>
<path transform="translate(939,1132)" d="m0 0 2 1 3 1 2 1 1-3 6 27 2 7v5l-3-1 1-2-2-1 1-2-3 1-1-5 2-7h-7l-4-17z" fill="#F8B0C1"/>
<path transform="translate(1032,1460)" d="m0 0h8l10 3v1l-12-1-5 4-2 6-1 8-9 5-2-1 3-8 1-7 4-8z" fill="#A262A6"/>
<path transform="translate(962,668)" d="m0 0h7v2l4 2v8l-5 4h-7l-3-3-1-2v-6z" fill="#FED2CE"/>
<path transform="translate(1059,1052)" d="m0 0h3 1v5l-2 3v5l-3 2-1 3h5l2 2h1l1 14-1-2-6-1-1-3-2-1v-5l1-1-5-3-1-3 4-9z" fill="#FDBEC5"/>
<path transform="translate(619,555)" d="m0 0 5 1 14 17 3 5-7 2-1 2-7-9-7-8v-2l4-1z" fill="#FDC1C7"/>
<path transform="translate(916,1237)" d="m0 0h9l12 3 7 4-1 3-2 1h-15l-5-5-8-4z" fill="#322A8E"/>
<path transform="translate(1017,1464)" d="m0 0h2l-2 4h-2l-1 8v3 7l-3 7-6 5-1-10-1-4h2l-1-6 2-4h2v-2h2v-2l6-4z" fill="#61429F"/>
<path transform="translate(1015,1446)" d="m0 0 7 1 8 3v2l4 1 5 2v4 1l-13 2-5 1 4-4-18-5v-1h9l8 1-4-4-3-1v-2z" fill="#573C9E"/>
<path transform="translate(1195,1443)" d="m0 0 2 2 5 11 2 5v3l3 1 1 5-1 1-15 2h-10v-2l6-2 15-1 1-1-3-1-11-1v-1l11-1-9-5 3-9z" fill="#5F419F"/>
<path transform="translate(1092,1389)" d="m0 0 1 2 5 2 6 3 3 5 9 5 12 12-6-2-4-5-7-3h-8l-6-7-6-5v-2h2z" fill="#A766A7"/>
<path transform="translate(797,692)" d="m0 0 5 1 6 2-2 6-8 4-9-1-3-1 2-6 2-4 7 1z" fill="#FDBFC6"/>
<path transform="translate(1067,1474)" d="m0 0h1l-1 9-6 12-5 5-8 6-16 6-14 2-23 1 2-2 20-1 10-2 10-3 5-3h3v-2l10-6 7-7 3-7v-5h2z" fill="#352B9B"/>
<path transform="translate(985,691)" d="m0 0h8l5 2 6 9v7l-4 8-3 2-13 1-6-3-5-8 1-7 4-7zm2 1-8 4-3 5-1 7 4 6 4 3h10l7-4 2-5v-6l-5-8-5-2z" fill="#EFA0BB"/>
<path transform="translate(1077,1028)" d="m0 0 4 1-8 9-1-2-2 1-2 3-4 2-5 7h-2l-2 5-6 9-2 4v-5l8-14v-5l5-4 4-4 7-2v-2l5-1z" fill="#E292B6"/>
<path transform="translate(813,626)" d="m0 0 7 1 3 5v2l-9 2-8 5h-4l-1-7z" fill="#FED4CF"/>
<path transform="translate(1009,1313)" d="m0 0 7 5v2l-5 1-5 4h-2l4 7-5-1-7-4-2-5 4-3 7-1v-2z" fill="#3A2E9B"/>
<path transform="translate(961,1192)" d="m0 0 4 4 3-2v5l2 2 10 1v1h-14l10 21-1 3v-2l-4-2-2-4v-3h-2v-3l-5-2v-9l-2-1v-7z" fill="#F4A9BE"/>
<path transform="translate(1020,687)" d="m0 0 8 1 3 3v7l-3 3-9-1-3-5 1-5z" fill="#FDD1D0"/>
<path transform="translate(656,623)" d="m0 0 2 3 1 3v11l-2 5v5l5 6h-2l-2 5-4 1 1-6-3-4-1-7 2-7 1-4h2z" fill="#5E409E"/>
<path transform="translate(1124,1423)" d="m0 0 7 1 8 5 14 7 11 5 9 5-3 1-11-5-6-2-5-2-7-2-16-11z" fill="#593E9E"/>
<path transform="translate(995,629)" d="m0 0 2 1 3 7 3 5 1 9 2 1h-2v3l-8 1-2-3 1-7z" fill="#8251A3"/>
<path transform="translate(598,531)" d="m0 0h9v2h-2l3 5-1 2h-2v2l-4-1 1 3h-2l-2-3-9-1-1-4 3-3z" fill="#FCBBC4"/>
<path transform="translate(786,669)" d="m0 0h5l-2 8-6 1-1 4-3 7-2 3h-2v-9l5-10 3-3z" fill="#FDC0C6"/>
<path transform="translate(1051,1465)" d="m0 0 10 1 6 2-2 4-8 4-6 2-3-2 2-10z" fill="#E391B6"/>
<path transform="translate(1254,1334)" d="m0 0v3l-2 5-1 55-2 9-2 1 1-12 1-55z" fill="#5D3F9F"/>
<path transform="translate(1e3 1292)" d="m0 0 4 2v2h2v2h3l1 3 2 1 3 6 6 9 3 6 1 3-4-1-1-3-6-5-4-7-2-5-4-5z" fill="#FCC4C9"/>
<path transform="translate(1034,1483)" d="m0 0h7l-2 5-5 1v2l-4 3h-6v2h-2v2l-7 3-9 6-1-2h2v-2l16-11 10-5v-2l-10 2-4-1 4-2z" fill="#E493B7"/>
<path transform="translate(1144,1437)" d="m0 0 7 1 7 3 10 4 12 6-2 1-9-1-6-1-18-11z" fill="#332A9A"/>
<path transform="translate(1018,664)" d="m0 0h2l3 10 3 3 2 4v6l-11-1-3-5 4-8z" fill="#8452A3"/>
<path transform="translate(1063,1485)" d="m0 0 1 2-7 8-6 5-6 2v2l-11 5-10 3-4-1 9-4 17-9 14-10h2z" fill="#5F419F"/>
<path transform="translate(657,618)" d="m0 0 3 1 1 5h-2l3 7-1 20 5 5-1 2-7 2 2-5-4-6 1-6 1-3v-11l-2-9z" fill="#332A9A"/>
<path transform="translate(1099,1472)" d="m0 0h21v2l37-1h25v1l-29 2h-22l-32-3z" fill="#523A9E"/>
<path transform="translate(932,966)" d="m0 0h1l1 13-1 12-2 11-3 24h-5l2-2 2-14 3-28z" fill="#7B4EA2"/>
<path transform="translate(1180,1466)" d="m0 0h17v3l-15 2v2h-16v-1h7v-2l-9-1-1-2z" fill="#C078AD"/>
<path transform="translate(934,617)" d="m0 0 8 1 5 4 2 5-1 6-2 2v-2l-4-2-4-4-2-8z" fill="#FED8D3"/>
<path transform="translate(640,611)" d="m0 0 6 2 2 2-5 3h-3l-1 5-2 2-2 7-4 1v-2l-3-1 4-4 4-12h2v-2z" fill="#E594B7"/>
<path transform="translate(960,872)" d="m0 0h1v5l6-5 4 1-2 5h-2l-2 5-5 4-3 4-2 4-1-1v-7l5-8z" fill="#A162A6"/>
<path transform="translate(926,624)" d="m0 0 1 2 5 1 2 1v3l4 1-1 4-2 3 8-1-3 2h-7l-6-5-2-5z" fill="#FED5D0"/>
<path transform="translate(774,1280)" d="m0 0 10 3 7 4 4 1v2h-2l1 3-2 3-6-3-12-11z" fill="#2C0D6B"/>
<path transform="translate(1141,1147)" d="m0 0 4 4 4 11 2 4h2l7 18 5 10v2l3 1 3 6-1 2-2-4-3-1-3-5-4-10-4-8-1-7-3-1-7-14z" fill="#DA8EB5"/>
<path transform="translate(681,642)" d="m0 0 3 3 6 15v5l-6-3-9-15 1-2 4 5 3 1-2-5z" fill="#5F419F"/>
<path transform="translate(1079,1463)" d="m0 0h23l21 1v1l-38 1-4 2 18 3v1h-8l-18-4v-2z" fill="#342B9B"/>
<path transform="translate(986,1430)" d="m0 0h1l1 6 19 9 5 4v2h-10l-7-2 4-1 1-4-12-4-2-3z" fill="#C078AD"/>
<path transform="translate(734,622)" d="m0 0h6l4 3v2h2l1 2v9l-3 3h-2l-1 4h-10v-2l-2-1h9l4-3 1-3h2l-1-7-2-3h-13l-3 2 2-4z" fill="#9460A7"/>
<path transform="translate(1088,1466)" d="m0 0 20 1-3 2 13 2v1h-19l-15-3-1-2z" fill="#8251A3"/>
<path transform="translate(998,1482)" d="m0 0 1 3v13l-1 4-2 2-2 1-1 2-2-5 2-12z" fill="#222289"/>
<path transform="translate(1031,691)" d="m0 0h2l1 11-3 9-5 12-1-4 2-7-1-1v-7l5-5z" fill="#7B4DA2"/>
<path transform="translate(986,1437)" d="m0 0 2 1v2h5l5 3 2 1 1 5-11-2-2-1h-7l1-3h3z" fill="#E190B6"/>
<path transform="translate(997,562)" d="m0 0h2l3 6 8 10-1 3-9-10-1 4-5 5-3-1 2-1z" fill="#24238B"/>
<path transform="translate(1015,1446)" d="m0 0 7 1 3 1v2h2v2h2l1 5h-13l-10-3v-1h9l8 1-4-4-3-1v-2z" fill="#6C46A0"/>
<path transform="translate(1021,1331)" d="m0 0 5 1 7 8 3 2v2l-6-1-9-4-1-1v-6z" fill="#2B0862"/>
<path transform="translate(654,599)" d="m0 0 4 2 4 7v4l1 7-2 1-2-3-3-1-2-10-1-6z" fill="#CB7FAF"/>
<path transform="translate(731,625)" d="m0 0h8l2 2v7l-5 1v-2l-8-1v-2l2-2z" fill="#FFD5D0"/>
<path transform="translate(646,589)" d="m0 0 5 1 5 9-2 1 2 8v7l-4-5-2-7-2-9v-4z" fill="#E697B8"/>
<path transform="translate(698,933)" d="m0 0 4 1 1 5 4 5 2 6 3 6v5l-4-4-10-21z" fill="#FDC2C7"/>
<path transform="translate(638,804)" d="m0 0h2l1 21-3 3-2-2v-18z" fill="#FAC8CA"/>
<path transform="translate(931,1024)" d="m0 0h4v4l2 1-1 8-2 1-6-2v-8z" fill="#E492B6"/>
<path transform="translate(803,675)" d="m0 0 6 1 2 3v6l-3 2-4-1v-2h-2v-2h-2v-5z" fill="#FDBFC6"/>
<path transform="translate(684,893)" d="m0 0h6l3 7 2 7-4 4-5-11z" fill="#FAB9C3"/>
<path transform="translate(969,668)" d="m0 0 4 1 3 5-1 7-3 3-3 1h-10l-3-3-2-6 4-6 2 1-2 2v6l1 4h9l4-3v-8l-3-2z" fill="#EFA0BB"/>
<path transform="translate(979,696)" d="m0 0 2 1-2 4-1 3 2 6 13 6v1h-10l-6-5-2-4 2-9z" fill="#FDBEC5"/>
<path transform="translate(1011,948)" d="m0 0 19 1 1 1h17l25-1v1l-5 1-15 1h-24l-16-2z" fill="#8856A4"/>
<path transform="translate(1243,1222)" d="m0 0 3 3 3 8v19h-1l-1-11-3-9-3-6z" fill="#FDBEC5"/>
<path transform="translate(982,1412)" d="m0 0h8l-4 1 1 7v10l-1 7h-1l-3-13-1-2 1-2h2z" fill="#ECA7BD"/>
<path transform="translate(923,576)" d="m0 0h5l3 5v3l3 1-11 2-4-1 2-8h2zm0 4v4h4v-4z" fill="#8E5CA6"/>
<path transform="translate(1164,1465)" d="m0 0h37l4 2-2 2h-6v-3l-17 1h-17z" fill="#8E57A4"/>
<path transform="translate(986,1413)" d="m0 0h23l-4 2h-16l-1 20 3 1-3 1-1-1z" fill="#583D9E"/>
<path transform="translate(1023,1486)" d="m0 0 2 1-5 6-6 4-4 3h-2l1-4 7-7 1-2z" fill="#FBBCC4"/>
<path transform="translate(1025,1485)" d="m0 0h8v2l-7 5-9 5-5 4-2-1 8-7 5-5z" fill="#F6A9BF"/>
<path transform="translate(1063,1054)" d="m0 0 1 4 2 1-1 1-1 13-4-1v-2h-3l1-4 2-2 1-8z" fill="#F5A9BF"/>
<path transform="translate(1008,718)" d="m0 0 4 2 1 1v6l-5 2-4-3 1-5z" fill="#F5C3D2"/>
<path transform="translate(977,696)" d="m0 0 1 3-2 9 3 5 5 4 6 2v1l-9-1-5-4-3-6 1-7z" fill="#ED9DBA"/>
<path transform="translate(946,935)" d="m0 0h1v12l-3 17h-1l-1-9v-11l2-2z" fill="#6A45A0"/>
<path transform="translate(1171,1205)" d="m0 0 3 4v4l3 1 4 11 3 7-1 4-4-9v-2h-2l-6-16z" fill="#DE8FB5"/>
<path transform="translate(962,668)" d="m0 0h7v2h-8v9l5 3 5-1-3 3h-7l-3-3-1-2v-6z" fill="#FCBBC4"/>
<path transform="translate(871,1271)" d="m0 0 3 1-8 3-3 1h-7v2l-10 3-12 1 1-2 16-3 4-2z" fill="#F1A3BC"/>
<path transform="translate(1188,1469)" d="m0 0h15l-3 1v2l-8 1h-10v-2z" fill="#744BA1"/>
<path transform="translate(950,1155)" d="m0 0h2l3 11v5l-3-1 1-2-2-1 1-2-3 1-1-5z" fill="#F7ADC0"/>
<path transform="translate(875,566)" d="m0 0 2 1-5 6-2 5h-2l-1 18-2-4v-11l4-8z" fill="#B874AD"/>
<path transform="translate(1155,1468)" d="m0 0 21 1-3 1v2l-7 1h-10v-1l5-1 1-2h-7z" fill="#DC8CB4"/>
<path transform="translate(908,576)" d="m0 0 5 2 4 10h-5l-5-9z" fill="#F2A5BD"/>
<path transform="translate(635,809)" d="m0 0h1l-1 19-2-1-3-13h2l1-2z" fill="#6E48A1"/>
<path transform="translate(1016,689)" d="m0 0 2 1-1 5 2 4 7 2v2h-8l-2-2-3-1h2l-1-2v-7z" fill="#D587B2"/>
<path transform="translate(1042,1342)" d="m0 0 5 5 1 4h2l4 6v3l-12-12-2-1v-3h2z" fill="#F7B0C1"/>
<path transform="translate(1155,1177)" d="m0 0 3 3 7 14v2l3 1 3 6-1 2-2-4-3-1-3-5-4-10-3-6z" fill="#E99AB9"/>
<path transform="translate(1131,1121)" d="m0 0 4 1 5 4 1 5-7-2h-2z" fill="#6B47A0"/>
<path transform="translate(928,1421)" d="m0 0h1l1 10 2 1 3 9-1 4-3-5-3-6z" fill="#DB98B8"/>
<path transform="translate(1030,1451)" d="m0 0 8 1 7 2-2 5-1 2-5-2 2-4-9-3z" fill="#342B9B"/>
<path transform="translate(1025,1328)" d="m0 0 7 6 6 9v2h-2l-1-3-7-6-3-5z" fill="#523A9C"/>
<path transform="translate(881,566)" d="m0 0 1 2-1 2-6 3-4 7-2-2 4-8 3-3z" fill="#FED1CE"/>
<path transform="translate(1122,1468)" d="m0 0h17v1l-11 1 8 2v1h-10v-2h-6l-1-2z" fill="#DF8EB5"/>
<path transform="translate(1019,628)" d="m0 0 5 1v6l-5 1-2-3v-4z" fill="#F9DFE4"/>
<path transform="translate(936,1447)" d="m0 0 6 2 1 3h6l1 3 14 1v1h-12l-10-4-6-5z" fill="#CF8CB4"/>
<path transform="translate(928,999)" d="m0 0h1v21l-1 6h-5l2-2 2-14z" fill="#6442A0"/>
<path transform="translate(745,631)" d="m0 0h1v7l-2 3h-2l-1 4h-10v-2l-2-1h9l4-3 1-3h2z" fill="#CB85B2"/>
<path transform="translate(1139,1468)" d="m0 0 1 3h5v2h-9l-9-3v-1z" fill="#F2A4BD"/>
<path transform="translate(1099,1472)" d="m0 0h21v2h9v1h-12l-18-2z" fill="#48359D"/>
<path transform="translate(991,1437)" d="m0 0 8 2v2l16 4-4 2-13-5-7-4z" fill="#6945A0"/>
<path transform="translate(942,966)" d="m0 0h1v10l-2 17h-1v-21z" fill="#4F389D"/>
<path transform="translate(1091,1467)" d="m0 0h17l-3 2 4 2h-8l-9-2z" fill="#A564A7"/>
<path transform="translate(986,1437)" d="m0 0 2 1v3h2l1 4 2 1h-12l1-3h3z" fill="#E89CBA"/>
<path transform="translate(1047,1178)" d="m0 0 4 1v3l-8 5h-3l2-5 4-1z" fill="#3F319C"/>
<path transform="translate(953,897)" d="m0 0h5v5l-4 8h-1z" fill="#25035F"/>
<path transform="translate(958,670)" d="m0 0 2 1-2 2v6l1 4h10v2h-10l-3-3-2-6z" fill="#F6A9BF"/>
<path transform="translate(992,667)" d="m0 0h1l2 8 1 3 4 1 10 1-1 2h-9l-6-4-2-4z" fill="#E093B6"/>
<path transform="translate(811,621)" d="m0 0h8l-3 3-12 2h-2v-2z" fill="#704CA3"/>
<path transform="translate(945,1153)" d="m0 0 5 1-1 7 1 2-5-1-1-8z" fill="#FDBFC5"/>
<path transform="translate(744,899)" d="m0 0 8 4 14 9-2 1-9-5-11-7z" fill="#F6A9BF"/>
<path transform="translate(691,703)" d="m0 0 15 1v1l-9 1 1 7-7-6z" fill="#CF86B3"/>
<path transform="translate(844,638)" d="m0 0h6l4 5 6 5h-3l-10-7-2-1-1 2z" fill="#E594B7"/>
<path transform="translate(783,981)" d="m0 0 1 2 5 1 4 2 1 5-4-2-10-6z" fill="#E797B8"/>
<path transform="translate(740,637)" d="m0 0h3l-2 4-3 2h-6v-3l5-2z" fill="#FFD5D0"/>
<path transform="translate(686,900)" d="m0 0 2 1 5 15v6l-4-2 1-6-4-12z" fill="#9C64A8"/>
<path transform="translate(773,917)" d="m0 0 6 2 15 7-3 1-16-7z" fill="#EE9FBB"/>
<path transform="translate(1157,1178)" d="m0 0h2l4 8v2h2l1 8-3-4-6-12z" fill="#B771AA"/>
<path transform="translate(607,538)" d="m0 0 2 1v3l2 1-1 3-8-2-1-3 4 1v-2h2z" fill="#E593B7"/>
<path transform="translate(954,1173)" d="m0 0h3l3 10v5l-2-1v-4h-2l-1-4 1-2-3-3z" fill="#F7AFC1"/>
<path transform="translate(822,677)" d="m0 0 3 1-1 5h-6l-1-4z" fill="#FDC6C9"/>
<path transform="translate(1187,1465)" d="m0 0h14l4 2-2 2h-6v-3h-10z" fill="#A564A7"/>
<path transform="translate(1138,808)" d="m0 0 1 3-8 11h-2l1-4z" fill="#FCCBCC"/>
<path transform="translate(885,563)" d="m0 0h8l3 2-14 1-5 1v-2z" fill="#DD92B6"/>
<path transform="translate(646,663)" d="m0 0h5l-3 2-14 3-1 5-1-4 3-4z" fill="#61419F"/>
<path transform="translate(951,921)" d="m0 0 1 2-3 11-1 8h-1v-14l2-6z" fill="#40319C"/>
<path transform="translate(638,804)" d="m0 0h2v11l-4-2 1-8z" fill="#C081B2"/>
<path transform="translate(993,1510)" d="m0 0 2 1-1 1 3 2h-2v2h-6v-4z" fill="#5B3E9F"/>
<path transform="translate(1e3 1330)" d="m0 0 9 3v2l-7-1-4 1-1-3h3z" fill="#D189B4"/>
<path transform="translate(672,642)" d="m0 0 4 5 6 10-1 3-9-15z" fill="#342B9B"/>
<path transform="translate(1140,1469)" d="m0 0h14l1 2-5 1-10-1z" fill="#FDBEC5"/>
<path transform="translate(1201,1465)" d="m0 0h6l1 5-1 1h-7l3-1 1-3z" fill="#5B3E9F"/>
<path transform="translate(1081,1025)" d="m0 0h3l-2 5h-3l1-1h-11l4-2z" fill="#7B4FA3"/>
<path transform="translate(984,1431)" d="m0 0h1l1 10-1 2-3-1 1-10z" fill="#FDBEC5"/>
<path transform="translate(967,1194)" d="m0 0 1 2 1 4 1 1 10 1v1h-13l-1-1v-7z" fill="#9A61A7"/>
<path transform="translate(1058,1468)" d="m0 0h9l-1 3-8 1z" fill="#F4A7BE"/>
<path transform="translate(1177,1221)" d="m0 0h2l5 11-1 4-4-9v-2h-2z" fill="#F0A1BC"/>
<path transform="translate(912,578)" d="m0 0 2 2 3 8h-5l-1-2z" fill="#BA76AD"/>
<path transform="translate(856,642)" d="m0 0 5 3 3 5-4-1-4-4z" fill="#FBB9C3"/>
<path transform="translate(1e3 1336)" d="m0 0h6l-4 2h-2z" fill="#F7AEC1"/>
</svg>
