<?xml version="1.0" encoding="UTF-8"?>
<!DOCTYPE svg PUBLIC "-//W3C//DTD SVG 1.1//EN" "http://www.w3.org/Graphics/SVG/1.1/DTD/svg11.dtd">
<svg xmlns="http://www.w3.org/2000/svg" version="1.1" width="500px" height="500px" style="shape-rendering:geometricPrecision; text-rendering:geometricPrecision; image-rendering:optimizeQuality; fill-rule:evenodd; clip-rule:evenodd" xmlns:xlink="http://www.w3.org/1999/xlink">
<g><path style="opacity:0.998" fill="#dbdbdb" d="M 253.5,145.5 C 251.549,144.284 250.049,142.618 249,140.5C 248.901,142.653 248.067,144.319 246.5,145.5C 246.44,144.957 246.107,144.624 245.5,144.5C 239.823,145.168 234.156,146.002 228.5,147C 227.934,147.995 227.267,148.828 226.5,149.5C 227.882,141.725 224.716,139.058 217,141.5C 216.178,144.117 215.678,146.784 215.5,149.5C 212.205,151.147 208.872,152.814 205.5,154.5C 200.274,153.94 197.274,156.273 196.5,161.5C 195.471,163.517 194.471,165.517 193.5,167.5C 192.833,167.5 192.5,167.833 192.5,168.5C 192.5,168.833 192.5,169.167 192.5,169.5C 191.323,171.679 190.323,174.013 189.5,176.5C 184.982,177.399 180.649,176.732 176.5,174.5C 175.537,171.256 174.204,168.256 172.5,165.5C 171.258,161.345 169.258,157.678 166.5,154.5C 166.5,153.167 166.5,151.833 166.5,150.5C 170.983,142.518 177.317,136.351 185.5,132C 200.017,124.87 215.35,120.537 231.5,119C 258.909,115.949 285.576,118.949 311.5,128C 331.981,138.444 344.647,154.944 349.5,177.5C 338.605,179.121 327.772,181.121 317,183.5C 316.228,183.355 315.561,183.022 315,182.5C 309.978,163.478 297.811,151.978 278.5,148C 270.066,145.884 261.733,145.051 253.5,145.5 Z M 246.5,145.5 C 246.5,146.167 246.5,146.833 246.5,147.5C 245.11,148.899 244.11,150.566 243.5,152.5C 240.318,154.193 238.652,156.859 238.5,160.5C 237.196,161.987 236.03,163.654 235,165.5C 232.643,160.633 228.809,157.966 223.5,157.5C 219.514,156.299 215.514,156.633 211.5,158.5C 210.025,161.326 208.692,164.326 207.5,167.5C 207.043,168.298 206.376,168.631 205.5,168.5C 202.995,168.02 200.662,167.02 198.5,165.5C 196.805,166.174 195.138,166.841 193.5,167.5C 194.471,165.517 195.471,163.517 196.5,161.5C 199.03,161.895 201.697,161.895 204.5,161.5C 205.474,159.257 205.808,156.924 205.5,154.5C 208.872,152.814 212.205,151.147 215.5,149.5C 217.322,151.16 219.489,152.16 222,152.5C 224.183,152.478 225.683,151.478 226.5,149.5C 227.267,148.828 227.934,147.995 228.5,147C 234.156,146.002 239.823,145.168 245.5,144.5C 246.107,144.624 246.44,144.957 246.5,145.5 Z"/></g>
<g><path style="opacity:1" fill="#f6d5d0" d="M 151.5,134.5 C 150.209,134.263 149.209,134.596 148.5,135.5C 146.533,135.739 144.699,135.406 143,134.5C 142.501,129.845 142.334,125.179 142.5,120.5C 153.037,120.233 156.037,124.899 151.5,134.5 Z"/></g>
<g><path style="opacity:1" fill="#f9d6d0" d="M 226.5,149.5 C 225.683,151.478 224.183,152.478 222,152.5C 219.489,152.16 217.322,151.16 215.5,149.5C 215.678,146.784 216.178,144.117 217,141.5C 224.716,139.058 227.882,141.725 226.5,149.5 Z"/></g>
<g><path style="opacity:1" fill="#4f4190" d="M 253.5,145.5 C 253.833,146.167 254.167,146.833 254.5,147.5C 253.833,147.5 253.167,147.5 252.5,147.5C 250.641,144.981 248.641,144.981 246.5,147.5C 246.5,146.833 246.5,146.167 246.5,145.5C 248.067,144.319 248.901,142.653 249,140.5C 250.049,142.618 251.549,144.284 253.5,145.5 Z"/></g>
<g><path style="opacity:1" fill="#5c3ba7" d="M 252.5,147.5 C 252.869,149.441 253.536,151.275 254.5,153C 254.167,153.333 253.833,153.667 253.5,154C 254.756,154.417 255.423,155.25 255.5,156.5C 252.833,157.167 252.833,157.833 255.5,158.5C 255.67,159.822 255.337,160.989 254.5,162C 256.639,165.519 257.973,169.352 258.5,173.5C 257.833,172.833 257.167,172.167 256.5,171.5C 256.5,171.167 256.5,170.833 256.5,170.5C 256.859,165.395 254.526,162.562 249.5,162C 250.022,161.439 250.355,160.772 250.5,160C 249.54,155.639 248.206,151.472 246.5,147.5C 248.641,144.981 250.641,144.981 252.5,147.5 Z"/></g>
<g><path style="opacity:1" fill="#edb2c1" d="M 148.5,135.5 C 149.209,134.596 150.209,134.263 151.5,134.5C 156.179,139.018 160.346,144.018 164,149.5C 164.671,150.252 165.504,150.586 166.5,150.5C 166.5,151.833 166.5,153.167 166.5,154.5C 164.833,155.833 163.167,155.833 161.5,154.5C 159.205,153.208 157.372,153.874 156,156.5C 145.502,153.127 144.835,154.461 154,160.5C 154.847,162.193 155.68,163.86 156.5,165.5C 151.117,162.956 146.783,159.122 143.5,154C 146.428,151.746 149.762,150.579 153.5,150.5C 156.605,150.939 159.605,151.439 162.5,152C 158.408,145.964 153.742,140.464 148.5,135.5 Z"/></g>
<g><path style="opacity:1" fill="#f2c9d1" d="M 243.5,152.5 C 244.508,154.339 246.008,155.672 248,156.5C 248.64,158.265 248.473,159.932 247.5,161.5C 245.858,163.081 243.858,163.747 241.5,163.5C 240.833,162.167 239.833,161.167 238.5,160.5C 238.652,156.859 240.318,154.193 243.5,152.5 Z"/></g>
<g><path style="opacity:1" fill="#f3d6d2" d="M 205.5,154.5 C 205.808,156.924 205.474,159.257 204.5,161.5C 201.697,161.895 199.03,161.895 196.5,161.5C 197.274,156.273 200.274,153.94 205.5,154.5 Z"/></g>
<g><path style="opacity:0.553" fill="#f1d1d1" d="M 231.5,153.5 C 238.189,153.987 239.023,156.321 234,160.5C 230.564,159.086 229.73,156.753 231.5,153.5 Z"/></g>
<g><path style="opacity:1" fill="#dabaf9" d="M 255.5,156.5 C 255.5,157.167 255.5,157.833 255.5,158.5C 252.833,157.833 252.833,157.167 255.5,156.5 Z"/></g>
<g><path style="opacity:1" fill="#2f2696" d="M 252.5,147.5 C 253.167,147.5 253.833,147.5 254.5,147.5C 255.167,147.5 255.5,147.833 255.5,148.5C 258.62,154.036 260.953,160.036 262.5,166.5C 262.41,169.695 261.077,172.028 258.5,173.5C 257.973,169.352 256.639,165.519 254.5,162C 255.337,160.989 255.67,159.822 255.5,158.5C 255.5,157.833 255.5,157.167 255.5,156.5C 255.423,155.25 254.756,154.417 253.5,154C 253.833,153.667 254.167,153.333 254.5,153C 253.536,151.275 252.869,149.441 252.5,147.5 Z"/></g>
<g><path style="opacity:1" fill="#9e67ab" d="M 161.5,154.5 C 163.167,155.833 164.833,155.833 166.5,154.5C 169.258,157.678 171.258,161.345 172.5,165.5C 171.833,165.5 171.5,165.833 171.5,166.5C 170.347,164.364 169.014,162.364 167.5,160.5C 166.728,159.306 165.728,158.306 164.5,157.5C 163.671,156.668 162.838,157.001 162,158.5C 161.51,159.793 161.343,161.127 161.5,162.5C 160.305,162.134 159.639,161.301 159.5,160C 160.077,158.1 160.744,156.267 161.5,154.5 Z"/></g>
<g><path style="opacity:1" fill="#3e2b8b" d="M 164.5,157.5 C 165.728,158.306 166.728,159.306 167.5,160.5C 167.672,161.492 167.338,162.158 166.5,162.5C 165.167,162.5 163.833,162.5 162.5,162.5C 162.392,160.486 163.058,158.82 164.5,157.5 Z"/></g>
<g><path style="opacity:1" fill="#cf7ead" d="M 161.5,154.5 C 160.744,156.267 160.077,158.1 159.5,160C 159.639,161.301 160.305,162.134 161.5,162.5C 161.5,163.833 162.167,164.5 163.5,164.5C 161.735,165.461 159.735,165.795 157.5,165.5C 157.167,165.5 156.833,165.5 156.5,165.5C 155.68,163.86 154.847,162.193 154,160.5C 144.835,154.461 145.502,153.127 156,156.5C 157.372,153.874 159.205,153.208 161.5,154.5 Z"/></g>
<g><path style="opacity:1" fill="#714d9f" d="M 164.5,157.5 C 163.058,158.82 162.392,160.486 162.5,162.5C 163.833,162.5 165.167,162.5 166.5,162.5C 165.71,163.401 164.71,164.068 163.5,164.5C 162.167,164.5 161.5,163.833 161.5,162.5C 161.343,161.127 161.51,159.793 162,158.5C 162.838,157.001 163.671,156.668 164.5,157.5 Z"/></g>
<g><path style="opacity:1" fill="#79499c" d="M 246.5,147.5 C 248.206,151.472 249.54,155.639 250.5,160C 250.355,160.772 250.022,161.439 249.5,162C 254.526,162.562 256.859,165.395 256.5,170.5C 255.448,170.649 254.448,170.483 253.5,170C 254.801,168.384 254.801,166.884 253.5,165.5C 252.365,163.787 250.698,163.12 248.5,163.5C 247.662,163.158 247.328,162.492 247.5,161.5C 248.473,159.932 248.64,158.265 248,156.5C 246.008,155.672 244.508,154.339 243.5,152.5C 244.11,150.566 245.11,148.899 246.5,147.5 Z"/></g>
<g><path style="opacity:1" fill="#d6cde5" d="M 167.5,160.5 C 169.014,162.364 170.347,164.364 171.5,166.5C 172.698,169.426 173.698,172.426 174.5,175.5C 174.167,175.5 173.833,175.5 173.5,175.5C 172.71,174.391 172.21,173.058 172,171.5C 171.086,172.654 170.253,172.487 169.5,171C 170.479,169.221 170.146,167.555 168.5,166C 164.871,166.11 161.204,166.276 157.5,166.5C 157.5,166.167 157.5,165.833 157.5,165.5C 159.735,165.795 161.735,165.461 163.5,164.5C 164.71,164.068 165.71,163.401 166.5,162.5C 167.338,162.158 167.672,161.492 167.5,160.5 Z"/></g>
<g><path style="opacity:1" fill="#f8d0dd" d="M 248.5,163.5 C 250.698,163.12 252.365,163.787 253.5,165.5C 253.592,169.071 251.926,170.238 248.5,169C 247.248,167.172 247.248,165.339 248.5,163.5 Z"/></g>
<g><path style="opacity:1" fill="#dcdadb" d="M 173.5,175.5 C 174.2,179.798 174.533,184.131 174.5,188.5C 174.182,193.032 174.515,197.366 175.5,201.5C 175.5,203.167 175.5,204.833 175.5,206.5C 175.5,206.833 175.5,207.167 175.5,207.5C 170.821,207.666 166.155,207.499 161.5,207C 160.027,206.29 159.36,205.124 159.5,203.5C 158.5,203.5 157.5,203.5 156.5,203.5C 153.712,191.075 154.046,178.742 157.5,166.5C 161.204,166.276 164.871,166.11 168.5,166C 170.146,167.555 170.479,169.221 169.5,171C 170.253,172.487 171.086,172.654 172,171.5C 172.21,173.058 172.71,174.391 173.5,175.5 Z"/></g>
<g><path style="opacity:1" fill="#3a2999" d="M 279.5,160.5 C 280.933,162.558 281.6,164.892 281.5,167.5C 280.167,167.5 278.833,167.5 277.5,167.5C 277.688,165.897 277.188,164.563 276,163.5C 268.196,171.782 261.362,180.782 255.5,190.5C 254.675,191.386 253.675,191.719 252.5,191.5C 252.5,190.5 252.5,189.5 252.5,188.5C 252.5,188.167 252.5,187.833 252.5,187.5C 252.557,186.391 252.89,185.391 253.5,184.5C 255.053,182.615 257.053,181.615 259.5,181.5C 259.201,179.396 259.534,177.396 260.5,175.5C 262.149,174.352 263.649,173.019 265,171.5C 267.017,167.39 269.517,163.723 272.5,160.5C 273.836,158.99 275.003,157.323 276,155.5C 277.802,156.789 278.969,158.456 279.5,160.5 Z"/></g>
<g><path style="opacity:1" fill="#443a79" d="M 172.5,165.5 C 174.204,168.256 175.537,171.256 176.5,174.5C 176.158,175.338 175.492,175.672 174.5,175.5C 173.698,172.426 172.698,169.426 171.5,166.5C 171.5,165.833 171.833,165.5 172.5,165.5 Z"/></g>
<g><path style="opacity:1" fill="#20196c" d="M 255.5,148.5 C 260.267,153.691 263.767,159.691 266,166.5C 268.011,164.322 270.177,162.322 272.5,160.5C 269.517,163.723 267.017,167.39 265,171.5C 263.649,173.019 262.149,174.352 260.5,175.5C 259.534,177.396 259.201,179.396 259.5,181.5C 257.053,181.615 255.053,182.615 253.5,184.5C 254.973,180.749 256.64,177.083 258.5,173.5C 261.077,172.028 262.41,169.695 262.5,166.5C 260.953,160.036 258.62,154.036 255.5,148.5 Z"/></g>
<g><path style="opacity:1" fill="#f6d3ce" d="M 205.5,168.5 C 205.5,169.167 205.5,169.833 205.5,170.5C 204.5,170.5 203.5,170.5 202.5,170.5C 201.143,177.008 197.976,178.008 193,173.5C 192.51,172.207 192.343,170.873 192.5,169.5C 192.5,169.167 192.5,168.833 192.5,168.5C 193.167,168.5 193.5,168.167 193.5,167.5C 195.138,166.841 196.805,166.174 198.5,165.5C 200.662,167.02 202.995,168.02 205.5,168.5 Z"/></g>
<g><path style="opacity:1" fill="#ec95b9" d="M 223.5,166.5 C 224.87,166.856 225.87,167.69 226.5,169C 229.01,177.242 232.344,185.075 236.5,192.5C 235.5,193.167 234.5,193.833 233.5,194.5C 234.816,195.807 235.816,197.307 236.5,199C 237.448,199.483 238.448,199.649 239.5,199.5C 240.058,205.18 240.725,210.847 241.5,216.5C 240.833,217.167 240.167,217.833 239.5,218.5C 238.828,213.163 236.161,209.163 231.5,206.5C 231.5,206.167 231.5,205.833 231.5,205.5C 232.748,204.666 233.415,203.333 233.5,201.5C 231.489,193.621 229.655,185.621 228,177.5C 224.839,174.511 223.339,170.844 223.5,166.5 Z"/></g>
<g><path style="opacity:1" fill="#d37baf" d="M 217.5,165.5 C 220.741,169.987 222.908,174.987 224,180.5C 225.602,188.11 226.769,195.777 227.5,203.5C 226.395,202.4 225.062,201.733 223.5,201.5C 222.791,200.596 221.791,200.263 220.5,200.5C 217.817,198.719 214.817,198.219 211.5,199C 210.205,202.842 210.372,206.675 212,210.5C 216.272,217.185 218.772,224.518 219.5,232.5C 217.236,233.219 214.903,233.552 212.5,233.5C 213.609,232.71 214.942,232.21 216.5,232C 212.768,221.872 208.768,211.872 204.5,202C 205.761,200.038 207.428,198.538 209.5,197.5C 212.2,196.484 214.866,196.484 217.5,197.5C 218.553,196.562 219.22,195.395 219.5,194C 216.489,184.711 213.822,175.044 211.5,165C 212,164.5 212.5,164 213,163.5C 214.33,164.582 215.83,165.249 217.5,165.5 Z"/></g>
<g><path style="opacity:1" fill="#151746" d="M 296.5,181.5 C 302.049,185.521 303.716,190.521 301.5,196.5C 300.895,193.873 300.395,191.207 300,188.5C 298.295,186.423 297.128,184.09 296.5,181.5 Z"/></g>
<g><path style="opacity:1" fill="#7546a8" d="M 279.5,160.5 C 281.262,161.262 282.262,162.596 282.5,164.5C 282.762,165.978 282.429,167.311 281.5,168.5C 280.281,169.263 279.281,170.263 278.5,171.5C 277.893,171.376 277.56,171.043 277.5,170.5C 277.631,169.624 277.298,168.957 276.5,168.5C 272.945,173.564 268.778,178.231 264,182.5C 261.112,187.776 257.612,192.609 253.5,197C 249.565,195.292 248.065,192.126 249,187.5C 250.011,188.337 251.178,188.67 252.5,188.5C 252.5,189.5 252.5,190.5 252.5,191.5C 253.675,191.719 254.675,191.386 255.5,190.5C 261.362,180.782 268.196,171.782 276,163.5C 277.188,164.563 277.688,165.897 277.5,167.5C 278.833,167.5 280.167,167.5 281.5,167.5C 281.6,164.892 280.933,162.558 279.5,160.5 Z"/></g>
<g><path style="opacity:1" fill="#e188b3" d="M 287.5,180.5 C 287.5,182.5 287.5,184.5 287.5,186.5C 285.223,188.641 282.723,190.641 280,192.5C 279.506,194.134 279.34,195.801 279.5,197.5C 278.167,197.5 276.833,197.5 275.5,197.5C 275.657,198.873 275.49,200.207 275,201.5C 270.13,206.007 266.964,211.007 265.5,216.5C 265.5,216.833 265.5,217.167 265.5,217.5C 262.958,217.706 261.291,219.039 260.5,221.5C 260.75,224.292 261.25,227.292 262,230.5C 262.465,231.931 263.299,233.097 264.5,234C 263.944,234.383 263.611,234.883 263.5,235.5C 261.097,235.607 259.264,234.607 258,232.5C 257.698,228.943 256.698,225.61 255,222.5C 249.928,223.471 244.762,223.805 239.5,223.5C 241.49,222.066 243.157,220.232 244.5,218C 244.167,217.667 243.833,217.333 243.5,217C 245.329,216.727 246.829,215.893 248,214.5C 251.903,209.037 255.57,203.37 259,197.5C 265.027,190.144 271.027,182.811 277,175.5C 277.408,179.949 277.075,184.283 276,188.5C 277.667,187.167 279.333,185.833 281,184.5C 281.381,180.348 283.547,178.015 287.5,177.5C 287.5,178.5 287.5,179.5 287.5,180.5 Z"/></g>
<g><path style="opacity:1" fill="#dc83b1" d="M 223.5,157.5 C 228.809,157.966 232.643,160.633 235,165.5C 236.03,163.654 237.196,161.987 238.5,160.5C 239.833,161.167 240.833,162.167 241.5,163.5C 241.5,164.5 241.5,165.5 241.5,166.5C 239.5,166.5 238.5,167.5 238.5,169.5C 236.299,168.261 234.132,166.928 232,165.5C 231.833,166.5 231.667,167.5 231.5,168.5C 236.749,182.405 241.749,196.405 246.5,210.5C 244.815,212.571 243.148,214.571 241.5,216.5C 240.725,210.847 240.058,205.18 239.5,199.5C 238.448,199.649 237.448,199.483 236.5,199C 235.816,197.307 234.816,195.807 233.5,194.5C 234.5,193.833 235.5,193.167 236.5,192.5C 232.344,185.075 229.01,177.242 226.5,169C 225.87,167.69 224.87,166.856 223.5,166.5C 222.412,163.444 222.412,160.444 223.5,157.5 Z"/></g>
<g><path style="opacity:1" fill="#ba6cab" d="M 247.5,161.5 C 247.328,162.492 247.662,163.158 248.5,163.5C 247.248,165.339 247.248,167.172 248.5,169C 251.926,170.238 253.592,169.071 253.5,165.5C 254.801,166.884 254.801,168.384 253.5,170C 254.448,170.483 255.448,170.649 256.5,170.5C 256.5,170.833 256.5,171.167 256.5,171.5C 257.167,172.167 257.833,172.833 258.5,173.5C 256.64,177.083 254.973,180.749 253.5,184.5C 252.89,185.391 252.557,186.391 252.5,187.5C 251.29,187.068 250.29,186.401 249.5,185.5C 251.89,185.315 252.89,183.982 252.5,181.5C 252.014,179.696 251.347,178.029 250.5,176.5C 249.628,172.816 247.461,171.816 244,173.5C 243.51,174.793 243.343,176.127 243.5,177.5C 242.18,176.058 240.514,175.392 238.5,175.5C 241.159,185.468 244.826,195.134 249.5,204.5C 253.307,203.191 255.474,200.524 256,196.5C 262.971,189.223 268.971,181.223 274,172.5C 274.816,171.177 275.983,170.511 277.5,170.5C 277.56,171.043 277.893,171.376 278.5,171.5C 279.281,170.263 280.281,169.263 281.5,168.5C 282.429,167.311 282.762,165.978 282.5,164.5C 285.258,168.421 287.258,172.755 288.5,177.5C 288.5,178.5 288.5,179.5 288.5,180.5C 288.167,180.5 287.833,180.5 287.5,180.5C 287.5,179.5 287.5,178.5 287.5,177.5C 283.547,178.015 281.381,180.348 281,184.5C 279.333,185.833 277.667,187.167 276,188.5C 277.075,184.283 277.408,179.949 277,175.5C 271.027,182.811 265.027,190.144 259,197.5C 255.57,203.37 251.903,209.037 248,214.5C 246.829,215.893 245.329,216.727 243.5,217C 243.833,217.333 244.167,217.667 244.5,218C 243.157,220.232 241.49,222.066 239.5,223.5C 239.5,223.833 239.5,224.167 239.5,224.5C 239.5,225.167 239.167,225.5 238.5,225.5C 238.579,224.07 238.246,222.736 237.5,221.5C 238.193,220.482 238.859,219.482 239.5,218.5C 240.167,217.833 240.833,217.167 241.5,216.5C 243.148,214.571 244.815,212.571 246.5,210.5C 241.749,196.405 236.749,182.405 231.5,168.5C 231.667,167.5 231.833,166.5 232,165.5C 234.132,166.928 236.299,168.261 238.5,169.5C 240.42,170.94 242.087,170.607 243.5,168.5C 243.145,167.478 242.478,166.811 241.5,166.5C 241.5,165.5 241.5,164.5 241.5,163.5C 243.858,163.747 245.858,163.081 247.5,161.5 Z"/></g>
<g><path style="opacity:1" fill="#fcd1ed" d="M 256.5,171.5 C 256.5,172.5 256.5,173.5 256.5,174.5C 255.5,174.5 254.5,174.5 253.5,174.5C 253.5,173.5 253.5,172.5 253.5,171.5C 254.5,171.5 255.5,171.5 256.5,171.5 Z"/></g>
<g><path style="opacity:1" fill="#facdd7" d="M 250.5,176.5 C 248.477,178.701 246.144,179.034 243.5,177.5C 243.343,176.127 243.51,174.793 244,173.5C 247.461,171.816 249.628,172.816 250.5,176.5 Z"/></g>
<g><path style="opacity:1" fill="#fccbda" d="M 241.5,166.5 C 242.478,166.811 243.145,167.478 243.5,168.5C 242.087,170.607 240.42,170.94 238.5,169.5C 238.5,167.5 239.5,166.5 241.5,166.5 Z"/></g>
<g><path style="opacity:1" fill="#ea91b5" d="M 211.5,158.5 C 213.448,160.789 215.448,163.122 217.5,165.5C 215.83,165.249 214.33,164.582 213,163.5C 212.5,164 212,164.5 211.5,165C 213.822,175.044 216.489,184.711 219.5,194C 219.22,195.395 218.553,196.562 217.5,197.5C 214.866,196.484 212.2,196.484 209.5,197.5C 210.251,192.424 209.251,187.591 206.5,183C 207.022,182.439 207.355,181.772 207.5,181C 205.854,178.405 205.187,175.572 205.5,172.5C 205.5,171.833 205.5,171.167 205.5,170.5C 205.5,169.833 205.5,169.167 205.5,168.5C 206.376,168.631 207.043,168.298 207.5,167.5C 208.692,164.326 210.025,161.326 211.5,158.5 Z"/></g>
<g><path style="opacity:1" fill="#211e7c" d="M 288.5,177.5 C 290.284,177.893 291.95,178.559 293.5,179.5C 294.514,182.456 296.014,185.123 298,187.5C 298.369,191.863 298.869,196.196 299.5,200.5C 298.096,206.546 297.096,212.546 296.5,218.5C 295.973,212.152 296.639,205.985 298.5,200C 297.914,196.659 296.414,193.826 294,191.5C 293.692,192.308 293.192,192.975 292.5,193.5C 291.702,191.922 291.202,190.256 291,188.5C 290.768,189.737 290.268,190.737 289.5,191.5C 289.813,187.958 289.479,184.625 288.5,181.5C 288.5,181.167 288.5,180.833 288.5,180.5C 288.5,179.5 288.5,178.5 288.5,177.5 Z"/></g>
<g><path style="opacity:1" fill="#d381ac" d="M 183.5,194.5 C 184.167,195.5 184.833,196.5 185.5,197.5C 183.156,197.325 181.489,196.158 180.5,194C 178.866,193.506 177.199,193.34 175.5,193.5C 175.5,195.5 175.5,197.5 175.5,199.5C 175.5,200.167 175.5,200.833 175.5,201.5C 174.515,197.366 174.182,193.032 174.5,188.5C 175.378,186.127 177.045,185.294 179.5,186C 180.703,188.905 182.036,191.738 183.5,194.5 Z"/></g>
<g><path style="opacity:1" fill="#f7a8c0" d="M 223.5,157.5 C 222.412,160.444 222.412,163.444 223.5,166.5C 223.339,170.844 224.839,174.511 228,177.5C 229.655,185.621 231.489,193.621 233.5,201.5C 233.415,203.333 232.748,204.666 231.5,205.5C 230.167,204.833 228.833,204.167 227.5,203.5C 226.769,195.777 225.602,188.11 224,180.5C 222.908,174.987 220.741,169.987 217.5,165.5C 215.448,163.122 213.448,160.789 211.5,158.5C 215.514,156.633 219.514,156.299 223.5,157.5 Z"/></g>
<g><path style="opacity:1" fill="#f7a9be" d="M 287.5,186.5 C 287.326,189.874 286.826,193.207 286,196.5C 285.586,196.043 285.086,195.709 284.5,195.5C 283.366,198.167 282.366,200.833 281.5,203.5C 280.5,203.5 279.5,203.5 278.5,203.5C 278.5,205.167 278.5,206.833 278.5,208.5C 277.306,209.272 276.306,210.272 275.5,211.5C 272.167,213.167 268.833,214.833 265.5,216.5C 266.964,211.007 270.13,206.007 275,201.5C 275.49,200.207 275.657,198.873 275.5,197.5C 276.833,197.5 278.167,197.5 279.5,197.5C 279.34,195.801 279.506,194.134 280,192.5C 282.723,190.641 285.223,188.641 287.5,186.5 Z"/></g>
<g><path style="opacity:1" fill="#f4a9be" d="M 176.5,174.5 C 180.649,176.732 184.982,177.399 189.5,176.5C 189.5,177.167 189.5,177.833 189.5,178.5C 187.362,178.938 185.028,179.105 182.5,179C 184.437,183.547 186.104,188.213 187.5,193C 187.167,193.833 186.833,194.667 186.5,195.5C 185.583,194.873 184.583,194.539 183.5,194.5C 182.036,191.738 180.703,188.905 179.5,186C 177.045,185.294 175.378,186.127 174.5,188.5C 174.533,184.131 174.2,179.798 173.5,175.5C 173.833,175.5 174.167,175.5 174.5,175.5C 175.492,175.672 176.158,175.338 176.5,174.5 Z"/></g>
<g><path style="opacity:1" fill="#19195b" d="M 293.5,179.5 C 294.71,179.932 295.71,180.599 296.5,181.5C 297.128,184.09 298.295,186.423 300,188.5C 300.395,191.207 300.895,193.873 301.5,196.5C 301.34,198.153 300.674,199.486 299.5,200.5C 298.869,196.196 298.369,191.863 298,187.5C 296.014,185.123 294.514,182.456 293.5,179.5 Z"/></g>
<g><path style="opacity:1" fill="#f9afc2" d="M 205.5,172.5 C 205.187,175.572 205.854,178.405 207.5,181C 207.355,181.772 207.022,182.439 206.5,183C 209.251,187.591 210.251,192.424 209.5,197.5C 206.518,197.963 203.518,198.296 200.5,198.5C 200.5,194.5 200.5,190.5 200.5,186.5C 199.833,185.833 199.167,185.167 198.5,184.5C 199.376,184.631 200.043,184.298 200.5,183.5C 201.608,179.478 203.275,175.812 205.5,172.5 Z"/></g>
<g><path style="opacity:1" fill="#d57cae" d="M 195.5,182.5 C 197.027,182.427 198.027,183.094 198.5,184.5C 199.167,185.167 199.833,185.833 200.5,186.5C 199.515,190.634 199.182,194.968 199.5,199.5C 197.712,199.785 196.045,199.452 194.5,198.5C 194.815,193.178 192.982,188.511 189,184.5C 188.517,183.552 188.351,182.552 188.5,181.5C 190.903,181.448 193.236,181.781 195.5,182.5 Z"/></g>
<g><path style="opacity:1" fill="#eab5d7" d="M 287.5,180.5 C 287.833,180.5 288.167,180.5 288.5,180.5C 288.5,180.833 288.5,181.167 288.5,181.5C 290.273,192.527 286.939,201.527 278.5,208.5C 278.5,206.833 278.5,205.167 278.5,203.5C 279.5,203.5 280.5,203.5 281.5,203.5C 282.366,200.833 283.366,198.167 284.5,195.5C 285.086,195.709 285.586,196.043 286,196.5C 286.826,193.207 287.326,189.874 287.5,186.5C 287.5,184.5 287.5,182.5 287.5,180.5 Z"/></g>
<g><path style="opacity:1" fill="#be6ea9" d="M 185.5,197.5 C 187.5,198.833 189.167,200.5 190.5,202.5C 188.254,203.455 185.921,204.122 183.5,204.5C 185.279,203.33 186.279,201.664 186.5,199.5C 183.557,199.353 180.724,198.687 178,197.5C 176.989,198.056 176.156,198.722 175.5,199.5C 175.5,197.5 175.5,195.5 175.5,193.5C 177.199,193.34 178.866,193.506 180.5,194C 181.489,196.158 183.156,197.325 185.5,197.5 Z"/></g>
<g><path style="opacity:1" fill="#a45fa7" d="M 183.5,204.5 C 181.095,205.768 178.428,206.435 175.5,206.5C 175.5,204.833 175.5,203.167 175.5,201.5C 175.5,200.833 175.5,200.167 175.5,199.5C 176.156,198.722 176.989,198.056 178,197.5C 180.724,198.687 183.557,199.353 186.5,199.5C 186.279,201.664 185.279,203.33 183.5,204.5 Z"/></g>
<g><path style="opacity:1" fill="#9f5aa9" d="M 277.5,170.5 C 275.983,170.511 274.816,171.177 274,172.5C 268.971,181.223 262.971,189.223 256,196.5C 255.474,200.524 253.307,203.191 249.5,204.5C 244.826,195.134 241.159,185.468 238.5,175.5C 240.514,175.392 242.18,176.058 243.5,177.5C 245.016,180.533 247.016,183.2 249.5,185.5C 250.29,186.401 251.29,187.068 252.5,187.5C 252.5,187.833 252.5,188.167 252.5,188.5C 251.178,188.67 250.011,188.337 249,187.5C 248.065,192.126 249.565,195.292 253.5,197C 257.612,192.609 261.112,187.776 264,182.5C 268.778,178.231 272.945,173.564 276.5,168.5C 277.298,168.957 277.631,169.624 277.5,170.5 Z"/></g>
<g><path style="opacity:1" fill="#dd88b5" d="M 250.5,176.5 C 251.347,178.029 252.014,179.696 252.5,181.5C 252.89,183.982 251.89,185.315 249.5,185.5C 247.016,183.2 245.016,180.533 243.5,177.5C 246.144,179.034 248.477,178.701 250.5,176.5 Z"/></g>
<g><path style="opacity:1" fill="#fdc0c5" d="M 156.5,203.5 C 157.5,203.5 158.5,203.5 159.5,203.5C 159.36,205.124 160.027,206.29 161.5,207C 166.155,207.499 170.821,207.666 175.5,207.5C 181.092,207.618 186.258,206.284 191,203.5C 192.5,204 194,204.5 195.5,205C 191.774,206.043 192.107,206.543 196.5,206.5C 197.466,212.23 199.133,217.73 201.5,223C 201.421,225.305 201.254,227.805 201,230.5C 198.2,228.505 195.033,227.505 191.5,227.5C 188.807,226.153 186.14,224.82 183.5,223.5C 180.867,220.889 177.867,218.722 174.5,217C 172.833,216.333 171.167,216.333 169.5,217C 171.193,219.934 172.193,223.101 172.5,226.5C 170.924,223.648 169.424,220.648 168,217.5C 165.532,214.847 162.699,212.847 159.5,211.5C 158.5,208.833 157.5,206.167 156.5,203.5 Z"/></g>
<g><path style="opacity:1" fill="#e992b5" d="M 189.5,178.5 C 191.882,179.351 193.882,180.684 195.5,182.5C 193.236,181.781 190.903,181.448 188.5,181.5C 188.351,182.552 188.517,183.552 189,184.5C 192.982,188.511 194.815,193.178 194.5,198.5C 196.045,199.452 197.712,199.785 199.5,199.5C 199.182,194.968 199.515,190.634 200.5,186.5C 200.5,190.5 200.5,194.5 200.5,198.5C 203.518,198.296 206.518,197.963 209.5,197.5C 207.428,198.538 205.761,200.038 204.5,202C 208.768,211.872 212.768,221.872 216.5,232C 214.942,232.21 213.609,232.71 212.5,233.5C 211.833,233.5 211.167,233.5 210.5,233.5C 208.167,233.5 205.833,233.5 203.5,233.5C 203.5,233.167 203.5,232.833 203.5,232.5C 204.833,232.5 206.167,232.5 207.5,232.5C 206.344,222.491 203.678,212.824 199.5,203.5C 196.705,201.312 193.705,200.979 190.5,202.5C 189.167,200.5 187.5,198.833 185.5,197.5C 184.833,196.5 184.167,195.5 183.5,194.5C 184.583,194.539 185.583,194.873 186.5,195.5C 186.833,194.667 187.167,193.833 187.5,193C 186.104,188.213 184.437,183.547 182.5,179C 185.028,179.105 187.362,178.938 189.5,178.5 Z"/></g>
<g><path style="opacity:1" fill="#5a3aa8" d="M 286.5,201.5 C 289.747,207.742 291.913,214.408 293,221.5C 293.333,221.833 293.667,222.167 294,222.5C 294.2,220.68 295.034,219.347 296.5,218.5C 296.598,220.553 295.931,222.22 294.5,223.5C 292.62,223.229 291.287,223.896 290.5,225.5C 289.711,225.217 289.044,224.717 288.5,224C 289.369,220.787 288.202,218.287 285,216.5C 284.505,214.527 284.338,212.527 284.5,210.5C 282.821,210.715 281.821,210.048 281.5,208.5C 282.811,205.865 284.478,203.531 286.5,201.5 Z"/></g>
<g><path style="opacity:1" fill="#3529a0" d="M 296.5,218.5 C 295.034,219.347 294.2,220.68 294,222.5C 293.667,222.167 293.333,221.833 293,221.5C 291.913,214.408 289.747,207.742 286.5,201.5C 288.302,198.426 289.302,195.092 289.5,191.5C 290.268,190.737 290.768,189.737 291,188.5C 291.202,190.256 291.702,191.922 292.5,193.5C 293.192,192.975 293.692,192.308 294,191.5C 296.414,193.826 297.914,196.659 298.5,200C 296.639,205.985 295.973,212.152 296.5,218.5 Z"/></g>
<g><path style="opacity:1" fill="#fbb4c3" d="M 203.5,232.5 C 200.167,231.5 196.833,230.5 193.5,229.5C 192.833,228.833 192.167,228.167 191.5,227.5C 195.033,227.505 198.2,228.505 201,230.5C 201.254,227.805 201.421,225.305 201.5,223C 199.133,217.73 197.466,212.23 196.5,206.5C 192.107,206.543 191.774,206.043 195.5,205C 194,204.5 192.5,204 191,203.5C 186.258,206.284 181.092,207.618 175.5,207.5C 175.5,207.167 175.5,206.833 175.5,206.5C 178.428,206.435 181.095,205.768 183.5,204.5C 185.921,204.122 188.254,203.455 190.5,202.5C 193.705,200.979 196.705,201.312 199.5,203.5C 203.678,212.824 206.344,222.491 207.5,232.5C 206.167,232.5 204.833,232.5 203.5,232.5 Z"/></g>
<g><path style="opacity:1" fill="#faafc2" d="M 272.5,185.5 C 273.234,186.878 273.901,188.378 274.5,190C 269.662,199.171 263.662,207.504 256.5,215C 255.5,215.667 254.5,215.667 253.5,215C 255.045,211.4 256.878,207.9 259,204.5C 263.719,198.287 268.219,191.954 272.5,185.5 Z"/></g>
<g><path style="opacity:1" fill="#814d9f" d="M 288.5,181.5 C 289.479,184.625 289.813,187.958 289.5,191.5C 289.302,195.092 288.302,198.426 286.5,201.5C 284.478,203.531 282.811,205.865 281.5,208.5C 276.474,210.464 275.808,213.13 279.5,216.5C 278.711,220.102 280.045,222.935 283.5,225C 285.355,225.422 287.189,225.922 289,226.5C 289.765,226.43 290.265,226.097 290.5,225.5C 291.287,223.896 292.62,223.229 294.5,223.5C 291.728,227.387 288.061,230.054 283.5,231.5C 282.833,231.5 282.167,231.5 281.5,231.5C 278.686,229.561 278.02,227.061 279.5,224C 278.523,222.503 277.523,221.003 276.5,219.5C 276.68,218.446 277.013,217.446 277.5,216.5C 276.388,215.735 275.721,214.735 275.5,213.5C 275.5,212.833 275.5,212.167 275.5,211.5C 276.306,210.272 277.306,209.272 278.5,208.5C 286.939,201.527 290.273,192.527 288.5,181.5 Z"/></g>
<g><path style="opacity:1" fill="#ab61ab" d="M 220.5,200.5 C 219.167,200.5 217.833,200.5 216.5,200.5C 217.623,210.334 220.29,219.667 224.5,228.5C 224.185,230.483 223.185,231.816 221.5,232.5C 220.833,232.5 220.167,232.5 219.5,232.5C 218.772,224.518 216.272,217.185 212,210.5C 210.372,206.675 210.205,202.842 211.5,199C 214.817,198.219 217.817,198.719 220.5,200.5 Z"/></g>
<g><path style="opacity:1" fill="#7e4aa9" d="M 281.5,208.5 C 281.821,210.048 282.821,210.715 284.5,210.5C 284.338,212.527 284.505,214.527 285,216.5C 288.202,218.287 289.369,220.787 288.5,224C 289.044,224.717 289.711,225.217 290.5,225.5C 290.265,226.097 289.765,226.43 289,226.5C 287.189,225.922 285.355,225.422 283.5,225C 280.045,222.935 278.711,220.102 279.5,216.5C 275.808,213.13 276.474,210.464 281.5,208.5 Z"/></g>
<g><path style="opacity:1" fill="#7a48a8" d="M 220.5,200.5 C 221.791,200.263 222.791,200.596 223.5,201.5C 221.335,201.116 219.668,201.783 218.5,203.5C 220.712,204.74 222.545,206.407 224,208.5C 225.348,215.799 226.515,223.132 227.5,230.5C 226.652,232.093 225.319,233.26 223.5,234C 224.935,236.941 227.269,238.441 230.5,238.5C 228.781,241.219 226.447,243.219 223.5,244.5C 222.192,243.768 220.858,242.934 219.5,242C 219.833,241.667 220.167,241.333 220.5,241C 217.573,237.565 217.906,234.731 221.5,232.5C 223.185,231.816 224.185,230.483 224.5,228.5C 220.29,219.667 217.623,210.334 216.5,200.5C 217.833,200.5 219.167,200.5 220.5,200.5 Z"/></g>
<g><path style="opacity:1" fill="#291867" d="M 231.5,206.5 C 236.161,209.163 238.828,213.163 239.5,218.5C 238.859,219.482 238.193,220.482 237.5,221.5C 238.246,222.736 238.579,224.07 238.5,225.5C 237.89,226.391 237.557,227.391 237.5,228.5C 237.5,229.167 237.167,229.5 236.5,229.5C 236.313,221.477 234.646,213.811 231.5,206.5 Z"/></g>
<g><path style="opacity:1" fill="#e2d6d9" d="M 159.5,211.5 C 162.699,212.847 165.532,214.847 168,217.5C 169.424,220.648 170.924,223.648 172.5,226.5C 172.5,227.5 172.5,228.5 172.5,229.5C 166.698,224.564 162.365,218.564 159.5,211.5 Z"/></g>
<g><path style="opacity:1" fill="#bc6cab" d="M 275.5,211.5 C 275.5,212.167 275.5,212.833 275.5,213.5C 273.83,213.751 272.33,214.418 271,215.5C 271.083,218.119 271.25,220.786 271.5,223.5C 275.456,224.053 275.456,224.886 271.5,226C 274.693,227.026 276.026,229.192 275.5,232.5C 277.621,232.675 279.621,232.341 281.5,231.5C 282.167,231.5 282.833,231.5 283.5,231.5C 282.22,232.931 280.553,233.598 278.5,233.5C 273.913,234.115 269.913,232.948 266.5,230C 266.833,229.667 267.167,229.333 267.5,229C 266.215,226.185 264.882,223.352 263.5,220.5C 264.193,219.482 264.859,218.482 265.5,217.5C 265.5,217.167 265.5,216.833 265.5,216.5C 268.833,214.833 272.167,213.167 275.5,211.5 Z"/></g>
<g><path style="opacity:1" fill="#a45ea9" d="M 275.5,213.5 C 275.721,214.735 276.388,215.735 277.5,216.5C 277.013,217.446 276.68,218.446 276.5,219.5C 277.523,221.003 278.523,222.503 279.5,224C 278.02,227.061 278.686,229.561 281.5,231.5C 279.621,232.341 277.621,232.675 275.5,232.5C 276.026,229.192 274.693,227.026 271.5,226C 275.456,224.886 275.456,224.053 271.5,223.5C 271.25,220.786 271.083,218.119 271,215.5C 272.33,214.418 273.83,213.751 275.5,213.5 Z"/></g>
<g><path style="opacity:1" fill="#5b3aa5" d="M 223.5,201.5 C 225.062,201.733 226.395,202.4 227.5,203.5C 228.833,204.167 230.167,204.833 231.5,205.5C 231.5,205.833 231.5,206.167 231.5,206.5C 229.072,205.788 226.739,204.788 224.5,203.5C 224.167,203.833 223.833,204.167 223.5,204.5C 224.522,205.354 225.355,206.354 226,207.5C 226.284,212.687 227.951,217.353 231,221.5C 232.498,225.766 231.332,228.766 227.5,230.5C 226.515,223.132 225.348,215.799 224,208.5C 222.545,206.407 220.712,204.74 218.5,203.5C 219.668,201.783 221.335,201.116 223.5,201.5 Z"/></g>
<g><path style="opacity:1" fill="#d27bae" d="M 265.5,217.5 C 264.859,218.482 264.193,219.482 263.5,220.5C 264.882,223.352 266.215,226.185 267.5,229C 267.167,229.333 266.833,229.667 266.5,230C 269.913,232.948 273.913,234.115 278.5,233.5C 278.5,233.833 278.5,234.167 278.5,234.5C 276.097,234.448 273.764,234.781 271.5,235.5C 268.833,235.5 266.167,235.5 263.5,235.5C 263.611,234.883 263.944,234.383 264.5,234C 263.299,233.097 262.465,231.931 262,230.5C 261.25,227.292 260.75,224.292 260.5,221.5C 261.291,219.039 262.958,217.706 265.5,217.5 Z"/></g>
<g><path style="opacity:1" fill="#302697" d="M 231.5,206.5 C 234.646,213.811 236.313,221.477 236.5,229.5C 236.5,230.167 236.5,230.833 236.5,231.5C 235.197,233.142 233.864,234.809 232.5,236.5C 232.167,237.5 231.5,238.167 230.5,238.5C 227.269,238.441 224.935,236.941 223.5,234C 225.319,233.26 226.652,232.093 227.5,230.5C 231.332,228.766 232.498,225.766 231,221.5C 227.951,217.353 226.284,212.687 226,207.5C 225.355,206.354 224.522,205.354 223.5,204.5C 223.833,204.167 224.167,203.833 224.5,203.5C 226.739,204.788 229.072,205.788 231.5,206.5 Z"/></g>
<g><path style="opacity:1" fill="#f4b4c2" d="M 239.5,224.5 C 242.58,225.517 245.58,226.684 248.5,228C 246.993,228.837 246.493,230.004 247,231.5C 252.109,235.634 257.942,237.301 264.5,236.5C 260.299,237.736 255.965,237.736 251.5,236.5C 248.613,234.917 245.613,233.417 242.5,232C 241.333,230.5 240.167,229 239,227.5C 238.617,228.056 238.117,228.389 237.5,228.5C 237.557,227.391 237.89,226.391 238.5,225.5C 239.167,225.5 239.5,225.167 239.5,224.5 Z"/></g>
<g><path style="opacity:1" fill="#eb94b6" d="M 183.5,223.5 C 186.14,224.82 188.807,226.153 191.5,227.5C 192.167,228.167 192.833,228.833 193.5,229.5C 190.956,229.896 188.789,229.229 187,227.5C 186.626,228.416 186.126,229.25 185.5,230C 187.737,234.136 189.403,238.469 190.5,243C 189.552,243.483 188.552,243.649 187.5,243.5C 186.737,242.732 185.737,242.232 184.5,242C 185.167,241.667 185.833,241.333 186.5,241C 183.762,235.688 181.429,230.188 179.5,224.5C 180.689,223.571 182.022,223.238 183.5,223.5 Z"/></g>
<g><path style="opacity:1" fill="#ec99b7" d="M 263.5,235.5 C 266.167,235.5 268.833,235.5 271.5,235.5C 269.393,236.468 267.059,236.802 264.5,236.5C 257.942,237.301 252.109,235.634 247,231.5C 246.493,230.004 246.993,228.837 248.5,228C 245.58,226.684 242.58,225.517 239.5,224.5C 239.5,224.167 239.5,223.833 239.5,223.5C 244.762,223.805 249.928,223.471 255,222.5C 256.698,225.61 257.698,228.943 258,232.5C 259.264,234.607 261.097,235.607 263.5,235.5 Z"/></g>
<g><path style="opacity:1" fill="#dc84b0" d="M 193.5,229.5 C 196.833,230.5 200.167,231.5 203.5,232.5C 203.5,232.833 203.5,233.167 203.5,233.5C 201.883,234.038 200.216,234.371 198.5,234.5C 197.986,236.512 197.82,238.512 198,240.5C 198.333,240.167 198.667,239.833 199,239.5C 199.309,240.766 199.809,241.933 200.5,243C 200.167,243.333 199.833,243.667 199.5,244C 203.701,246.672 203.367,247.839 198.5,247.5C 194.011,245.237 189.345,243.904 184.5,243.5C 185.5,243.5 186.5,243.5 187.5,243.5C 188.552,243.649 189.552,243.483 190.5,243C 189.403,238.469 187.737,234.136 185.5,230C 186.126,229.25 186.626,228.416 187,227.5C 188.789,229.229 190.956,229.896 193.5,229.5 Z"/></g>
<g><path style="opacity:1" fill="#f5aabd" d="M 183.5,223.5 C 182.022,223.238 180.689,223.571 179.5,224.5C 181.429,230.188 183.762,235.688 186.5,241C 185.833,241.333 185.167,241.667 184.5,242C 185.737,242.232 186.737,242.732 187.5,243.5C 186.5,243.5 185.5,243.5 184.5,243.5C 177.395,241.715 173.395,237.048 172.5,229.5C 172.5,228.5 172.5,227.5 172.5,226.5C 172.193,223.101 171.193,219.934 169.5,217C 171.167,216.333 172.833,216.333 174.5,217C 177.867,218.722 180.867,220.889 183.5,223.5 Z"/></g>
<g><path style="opacity:1" fill="#bc6eac" d="M 203.5,233.5 C 205.833,233.5 208.167,233.5 210.5,233.5C 209.689,235.557 208.689,237.557 207.5,239.5C 208.36,241.272 209.693,242.605 211.5,243.5C 210.335,244.584 209.002,245.417 207.5,246C 210.278,247.392 213.278,247.892 216.5,247.5C 215.167,248.5 213.833,249.5 212.5,250.5C 209.15,250.665 205.817,250.498 202.5,250C 200.934,249.392 199.6,248.558 198.5,247.5C 203.367,247.839 203.701,246.672 199.5,244C 199.833,243.667 200.167,243.333 200.5,243C 199.809,241.933 199.309,240.766 199,239.5C 198.667,239.833 198.333,240.167 198,240.5C 197.82,238.512 197.986,236.512 198.5,234.5C 200.216,234.371 201.883,234.038 203.5,233.5 Z"/></g>
<g><path style="opacity:0.998" fill="#dbdbdb" d="M 251.5,236.5 C 251.611,237.117 251.944,237.617 252.5,238C 254.833,238.167 257.167,238.333 259.5,238.5C 268.322,237.122 276.989,236.455 285.5,236.5C 301.995,239.83 317.328,245.997 331.5,255C 351.744,271.382 359.577,292.549 355,318.5C 350.278,342.755 336.445,359.589 313.5,369C 296.508,375.898 278.842,379.398 260.5,379.5C 262.886,378.08 265.553,377.08 268.5,376.5C 267.5,375.833 266.5,375.167 265.5,374.5C 266.373,372.587 267.373,370.753 268.5,369C 280.167,368.667 291.833,368.333 303.5,368C 305.915,366.535 306.915,364.368 306.5,361.5C 307.496,361.586 308.329,361.252 309,360.5C 310.48,356.385 312.147,352.385 314,348.5C 314.191,342.917 314.691,337.417 315.5,332C 315.272,331.601 314.938,331.435 314.5,331.5C 328.004,304.99 321.337,285.49 294.5,273C 285.147,268.741 275.481,266.575 265.5,266.5C 266.199,263.427 267.199,260.427 268.5,257.5C 267.386,256.224 266.386,256.224 265.5,257.5C 262.558,258.304 259.891,259.638 257.5,261.5C 256.833,261.5 256.167,261.5 255.5,261.5C 248.472,260.327 241.472,258.993 234.5,257.5C 233.612,254.946 233.279,252.279 233.5,249.5C 234.129,243.425 235.129,237.425 236.5,231.5C 236.5,230.833 236.5,230.167 236.5,229.5C 237.167,229.5 237.5,229.167 237.5,228.5C 238.117,228.389 238.617,228.056 239,227.5C 240.167,229 241.333,230.5 242.5,232C 245.613,233.417 248.613,234.917 251.5,236.5 Z"/></g>
<g><path style="opacity:1" fill="#e4d1dc" d="M 278.5,234.5 C 281.067,234.721 283.401,235.388 285.5,236.5C 276.989,236.455 268.322,237.122 259.5,238.5C 257.167,238.333 254.833,238.167 252.5,238C 251.944,237.617 251.611,237.117 251.5,236.5C 255.965,237.736 260.299,237.736 264.5,236.5C 267.059,236.802 269.393,236.468 271.5,235.5C 273.764,234.781 276.097,234.448 278.5,234.5 Z"/></g>
<g><path style="opacity:1" fill="#9154a7" d="M 219.5,232.5 C 220.167,232.5 220.833,232.5 221.5,232.5C 217.906,234.731 217.573,237.565 220.5,241C 220.167,241.333 219.833,241.667 219.5,242C 220.858,242.934 222.192,243.768 223.5,244.5C 221.574,246.293 219.241,247.293 216.5,247.5C 213.278,247.892 210.278,247.392 207.5,246C 209.002,245.417 210.335,244.584 211.5,243.5C 209.693,242.605 208.36,241.272 207.5,239.5C 208.689,237.557 209.689,235.557 210.5,233.5C 211.167,233.5 211.833,233.5 212.5,233.5C 214.903,233.552 217.236,233.219 219.5,232.5 Z"/></g>
<g><path style="opacity:1" fill="#c592b1" d="M 236.5,231.5 C 235.129,237.425 234.129,243.425 233.5,249.5C 232.833,249.5 232.167,249.5 231.5,249.5C 231.888,245.448 232.555,241.448 233.5,237.5C 233.376,236.893 233.043,236.56 232.5,236.5C 233.864,234.809 235.197,233.142 236.5,231.5 Z"/></g>
<g><path style="opacity:1" fill="#dcd6dd" d="M 232.5,236.5 C 233.043,236.56 233.376,236.893 233.5,237.5C 232.555,241.448 231.888,245.448 231.5,249.5C 231.5,252.5 231.5,255.5 231.5,258.5C 230.733,257.828 230.066,256.995 229.5,256C 223.644,254.622 217.977,252.789 212.5,250.5C 213.833,249.5 215.167,248.5 216.5,247.5C 219.241,247.293 221.574,246.293 223.5,244.5C 226.447,243.219 228.781,241.219 230.5,238.5C 231.5,238.167 232.167,237.5 232.5,236.5 Z"/></g>
<g><path style="opacity:1" fill="#dc94b0" d="M 265.5,257.5 C 266.043,257.56 266.376,257.893 266.5,258.5C 263.618,261.024 261.618,264.024 260.5,267.5C 260.5,265.5 260.5,263.5 260.5,261.5C 259.5,261.5 258.5,261.5 257.5,261.5C 259.891,259.638 262.558,258.304 265.5,257.5 Z"/></g>
<g><path style="opacity:1" fill="#f6bac8" d="M 265.5,257.5 C 266.386,256.224 267.386,256.224 268.5,257.5C 267.199,260.427 266.199,263.427 265.5,266.5C 265.916,269.583 266.583,272.583 267.5,275.5C 262.279,275.521 259.946,272.854 260.5,267.5C 261.618,264.024 263.618,261.024 266.5,258.5C 266.376,257.893 266.043,257.56 265.5,257.5 Z"/></g>
<g><path style="opacity:1" fill="#d37eae" d="M 255.5,261.5 C 256.167,261.5 256.833,261.5 257.5,261.5C 258.5,261.5 259.5,261.5 260.5,261.5C 260.5,263.5 260.5,265.5 260.5,267.5C 259.946,272.854 262.279,275.521 267.5,275.5C 267.5,277.5 267.5,279.5 267.5,281.5C 265.359,281.251 263.193,280.917 261,280.5C 259.092,276.086 258.092,270.753 258,264.5C 257.329,263.748 256.496,263.414 255.5,263.5C 255.5,262.833 255.5,262.167 255.5,261.5 Z"/></g>
<g><path style="opacity:0.902" fill="#735a94" d="M 287.5,283.5 C 286.417,283.461 285.417,283.127 284.5,282.5C 283.537,282.97 283.537,283.637 284.5,284.5C 283.833,284.5 283.167,284.5 282.5,284.5C 281.948,282.669 281.948,281.003 282.5,279.5C 284.419,280.612 286.086,281.946 287.5,283.5 Z"/></g>
<g><path style="opacity:1" fill="#9b59a7" d="M 267.5,283.5 C 267.655,286.716 266.655,289.383 264.5,291.5C 264.5,290.5 264.5,289.5 264.5,288.5C 262.095,289.687 259.761,291.187 257.5,293C 256.207,293.49 254.873,293.657 253.5,293.5C 253.449,291.43 254.115,289.597 255.5,288C 253.948,284.293 252.781,280.46 252,276.5C 251.051,274.907 249.885,273.574 248.5,272.5C 248.932,271.29 249.599,270.29 250.5,269.5C 251.898,267.891 253.565,267.058 255.5,267C 254.346,267.914 254.513,268.747 256,269.5C 256.333,274.167 256.667,278.833 257,283.5C 257.36,285.421 258.194,287.088 259.5,288.5C 261.858,286.322 264.525,284.655 267.5,283.5 Z"/></g>
<g><path style="opacity:1" fill="#b86cad" d="M 255.5,263.5 C 256.496,263.414 257.329,263.748 258,264.5C 258.092,270.753 259.092,276.086 261,280.5C 263.193,280.917 265.359,281.251 267.5,281.5C 267.5,282.167 267.5,282.833 267.5,283.5C 264.525,284.655 261.858,286.322 259.5,288.5C 258.194,287.088 257.36,285.421 257,283.5C 256.667,278.833 256.333,274.167 256,269.5C 254.513,268.747 254.346,267.914 255.5,267C 253.565,267.058 251.898,267.891 250.5,269.5C 251.419,266.911 253.086,264.911 255.5,263.5 Z"/></g>
<g><path style="opacity:0.967" fill="#edbac8" d="M 231.5,249.5 C 232.167,249.5 232.833,249.5 233.5,249.5C 233.279,252.279 233.612,254.946 234.5,257.5C 234.196,271.044 236.196,284.377 240.5,297.5C 240.557,298.609 240.89,299.609 241.5,300.5C 246.224,311.62 252.224,321.953 259.5,331.5C 258.508,331.328 257.842,331.662 257.5,332.5C 256.167,331.5 254.833,330.5 253.5,329.5C 253.672,328.508 253.338,327.842 252.5,327.5C 251.833,326.167 250.833,325.167 249.5,324.5C 249.107,322.716 248.441,321.05 247.5,319.5C 247.5,318.833 247.167,318.5 246.5,318.5C 236.503,299.844 231.503,279.844 231.5,258.5C 231.5,255.5 231.5,252.5 231.5,249.5 Z"/></g>
<g><path style="opacity:1" fill="#9355a0" d="M 287.5,283.5 C 288.833,284.5 290.167,285.5 291.5,286.5C 291.392,288.514 292.058,290.18 293.5,291.5C 294.085,295.177 294.752,298.843 295.5,302.5C 295.043,303.298 294.376,303.631 293.5,303.5C 290.229,297.292 287.229,290.959 284.5,284.5C 283.537,283.637 283.537,282.97 284.5,282.5C 285.417,283.127 286.417,283.461 287.5,283.5 Z"/></g>
<g><path style="opacity:1" fill="#4630a0" d="M 246.5,292.5 C 247.496,292.414 248.329,292.748 249,293.5C 249.273,295.101 249.773,296.601 250.5,298C 248.167,298.667 245.833,298.667 243.5,298C 244.823,297.184 245.489,296.017 245.5,294.5C 245.328,293.508 245.662,292.842 246.5,292.5 Z"/></g>
<g><path style="opacity:1" fill="#6a409d" d="M 248.5,272.5 C 249.885,273.574 251.051,274.907 252,276.5C 252.781,280.46 253.948,284.293 255.5,288C 254.115,289.597 253.449,291.43 253.5,293.5C 254.873,293.657 256.207,293.49 257.5,293C 259.761,291.187 262.095,289.687 264.5,288.5C 264.5,289.5 264.5,290.5 264.5,291.5C 262.894,294.824 260.227,296.99 256.5,298C 251.565,299.267 246.565,300.1 241.5,300.5C 240.89,299.609 240.557,298.609 240.5,297.5C 242.411,296.925 244.078,295.925 245.5,294.5C 245.489,296.017 244.823,297.184 243.5,298C 245.833,298.667 248.167,298.667 250.5,298C 249.773,296.601 249.273,295.101 249,293.5C 248.329,292.748 247.496,292.414 246.5,292.5C 247.167,285.833 247.833,279.167 248.5,272.5 Z"/></g>
<g><path style="opacity:1" fill="#fcbec4" d="M 282.5,284.5 C 283.167,284.5 283.833,284.5 284.5,284.5C 287.229,290.959 290.229,297.292 293.5,303.5C 293.5,303.833 293.5,304.167 293.5,304.5C 294.083,308.337 294.75,312.17 295.5,316C 292.899,320.7 290.399,325.534 288,330.5C 287.667,329.5 287.333,328.5 287,327.5C 284.484,330.534 282.484,333.868 281,337.5C 280.085,336.672 279.419,335.672 279,334.5C 276.317,335.893 276.15,337.226 278.5,338.5C 279.452,340.045 279.785,341.712 279.5,343.5C 278.738,345.262 277.404,346.262 275.5,346.5C 275.167,346.5 274.833,346.5 274.5,346.5C 271.605,338.439 270.772,330.106 272,321.5C 275.04,309.001 278.54,296.667 282.5,284.5 Z"/></g>
<g><path style="opacity:0.999" fill="#dbdbdb" d="M 231.5,351.5 C 229.949,353.913 229.283,356.579 229.5,359.5C 232.56,361.053 235.726,362.386 239,363.5C 242.076,362.306 245.243,361.639 248.5,361.5C 250.921,361.878 253.254,362.545 255.5,363.5C 255.833,363.5 256.167,363.5 256.5,363.5C 254.651,364.593 252.984,365.926 251.5,367.5C 248.357,370.004 246.691,373.337 246.5,377.5C 245.494,377.938 245.494,378.604 246.5,379.5C 219.985,380.538 195.318,374.371 172.5,361C 156.437,349.447 146.77,333.947 143.5,314.5C 154.546,312.589 165.546,310.756 176.5,309C 181.639,328.139 193.639,340.806 212.5,347C 218.733,348.975 225.067,350.475 231.5,351.5 Z"/></g>
<g><path style="opacity:1" fill="#413273" d="M 230.5,308.5 C 231.959,308.433 233.292,308.766 234.5,309.5C 234.027,310.906 233.027,311.573 231.5,311.5C 231.443,310.391 231.11,309.391 230.5,308.5 Z"/></g>
<g><path style="opacity:1" fill="#56379b" d="M 230.5,308.5 C 231.11,309.391 231.443,310.391 231.5,311.5C 229.883,312.038 228.216,312.371 226.5,312.5C 223.784,312.322 221.117,311.822 218.5,311C 219.858,310.066 221.192,309.232 222.5,308.5C 225.204,307.286 227.871,307.286 230.5,308.5 Z"/></g>
<g><path style="opacity:1" fill="#824da1" d="M 222.5,308.5 C 221.192,309.232 219.858,310.066 218.5,311C 221.117,311.822 223.784,312.322 226.5,312.5C 225.833,313.167 225.167,313.833 224.5,314.5C 223.833,314.5 223.167,314.5 222.5,314.5C 218.727,314.737 215.06,314.237 211.5,313C 212.381,312.292 213.047,311.458 213.5,310.5C 216.273,309.343 219.273,308.676 222.5,308.5 Z"/></g>
<g><path style="opacity:1" fill="#fabac5" d="M 234.5,309.5 C 237.921,310.539 240.588,312.539 242.5,315.5C 238.572,316.924 234.905,318.758 231.5,321C 228.493,321.301 225.493,321.135 222.5,320.5C 222.64,318.876 221.973,317.71 220.5,317C 222.32,316.8 223.653,315.966 224.5,314.5C 225.167,313.833 225.833,313.167 226.5,312.5C 228.216,312.371 229.883,312.038 231.5,311.5C 233.027,311.573 234.027,310.906 234.5,309.5 Z"/></g>
<g><path style="opacity:1" fill="#af64a8" d="M 213.5,310.5 C 213.047,311.458 212.381,312.292 211.5,313C 215.06,314.237 218.727,314.737 222.5,314.5C 221.791,315.404 220.791,315.737 219.5,315.5C 216.824,316.008 214.157,316.175 211.5,316C 210.241,315.077 208.908,314.243 207.5,313.5C 207.863,312.817 208.196,312.15 208.5,311.5C 210.117,310.962 211.784,310.629 213.5,310.5 Z"/></g>
<g><path style="opacity:1" fill="#cd7aab" d="M 208.5,311.5 C 208.196,312.15 207.863,312.817 207.5,313.5C 208.908,314.243 210.241,315.077 211.5,316C 214.157,316.175 216.824,316.008 219.5,315.5C 216.98,316.918 214.313,317.918 211.5,318.5C 208.351,318.789 205.351,318.289 202.5,317C 201.316,315.855 201.316,314.688 202.5,313.5C 204.302,312.542 206.302,311.875 208.5,311.5 Z"/></g>
<g><path style="opacity:1" fill="#d17baf" d="M 291.5,286.5 C 294.06,288.273 296.393,290.273 298.5,292.5C 297.93,295.315 298.764,297.981 301,300.5C 303.642,309.77 306.309,319.103 309,328.5C 309.497,330.81 309.663,333.143 309.5,335.5C 307.32,327.456 304.82,319.456 302,311.5C 298.506,306.079 296.506,300.079 296,293.5C 295.292,292.619 294.458,291.953 293.5,291.5C 292.058,290.18 291.392,288.514 291.5,286.5 Z"/></g>
<g><path style="opacity:1" fill="#e08bb1" d="M 298.5,292.5 C 302.515,298.359 305.682,304.692 308,311.5C 309.38,316.586 310.546,321.586 311.5,326.5C 311.328,327.492 311.662,328.158 312.5,328.5C 313.167,328.5 313.5,328.833 313.5,329.5C 312.833,335.833 312.167,342.167 311.5,348.5C 310.949,344.027 310.283,339.693 309.5,335.5C 309.663,333.143 309.497,330.81 309,328.5C 306.309,319.103 303.642,309.77 301,300.5C 298.764,297.981 297.93,295.315 298.5,292.5 Z"/></g>
<g><path style="opacity:1" fill="#f2a2ba" d="M 298.5,292.5 C 303.167,295.167 306.833,298.833 309.5,303.5C 311.065,311.076 311.732,318.742 311.5,326.5C 310.546,321.586 309.38,316.586 308,311.5C 305.682,304.692 302.515,298.359 298.5,292.5 Z"/></g>
<g><path style="opacity:1" fill="#eab9c4" d="M 309.5,303.5 C 310.79,304.058 311.623,305.058 312,306.5C 312.5,313.826 312.666,321.159 312.5,328.5C 311.662,328.158 311.328,327.492 311.5,326.5C 311.732,318.742 311.065,311.076 309.5,303.5 Z"/></g>
<g><path style="opacity:1" fill="#efb1c7" d="M 195.5,314.5 C 194.282,315.161 192.949,315.828 191.5,316.5C 191.709,317.086 192.043,317.586 192.5,318C 198.944,319.669 205.277,319.836 211.5,318.5C 214.313,317.918 216.98,316.918 219.5,315.5C 220.791,315.737 221.791,315.404 222.5,314.5C 223.167,314.5 223.833,314.5 224.5,314.5C 223.653,315.966 222.32,316.8 220.5,317C 221.973,317.71 222.64,318.876 222.5,320.5C 225.493,321.135 228.493,321.301 231.5,321C 234.905,318.758 238.572,316.924 242.5,315.5C 243.833,316.5 245.167,317.5 246.5,318.5C 246.5,318.833 246.5,319.167 246.5,319.5C 245.833,319.5 245.167,319.5 244.5,319.5C 244.217,318.711 243.717,318.044 243,317.5C 238.71,320.727 233.877,322.394 228.5,322.5C 226.833,322.5 225.167,322.5 223.5,322.5C 221.052,321.527 218.385,321.194 215.5,321.5C 212.167,321.5 208.833,321.5 205.5,321.5C 201.3,321.81 197.3,321.143 193.5,319.5C 191.078,318.915 189.411,317.415 188.5,315C 190.81,314.503 193.143,314.337 195.5,314.5 Z"/></g>
<g><path style="opacity:1" fill="#ea99b7" d="M 202.5,313.5 C 201.316,314.688 201.316,315.855 202.5,317C 205.351,318.289 208.351,318.789 211.5,318.5C 205.277,319.836 198.944,319.669 192.5,318C 192.043,317.586 191.709,317.086 191.5,316.5C 192.949,315.828 194.282,315.161 195.5,314.5C 197.764,313.781 200.097,313.448 202.5,313.5 Z"/></g>
<g><path style="opacity:1" fill="#271757" d="M 193.5,319.5 C 197.3,321.143 201.3,321.81 205.5,321.5C 205.5,321.833 205.5,322.167 205.5,322.5C 203.143,322.337 200.81,322.503 198.5,323C 199.381,323.708 200.047,324.542 200.5,325.5C 197.527,324.19 195.193,322.19 193.5,319.5 Z"/></g>
<g><path style="opacity:1" fill="#b166a9" d="M 244.5,319.5 C 245.167,319.5 245.833,319.5 246.5,319.5C 246.833,319.5 247.167,319.5 247.5,319.5C 248.441,321.05 249.107,322.716 249.5,324.5C 248.292,323.766 246.959,323.433 245.5,323.5C 245.325,325.621 245.659,327.621 246.5,329.5C 244.278,328.312 241.945,327.312 239.5,326.5C 239.5,325.5 239.5,324.5 239.5,323.5C 241.981,323.226 243.647,321.893 244.5,319.5 Z"/></g>
<g><path style="opacity:1" fill="#7043a3" d="M 205.5,322.5 C 205.5,322.167 205.5,321.833 205.5,321.5C 208.833,321.5 212.167,321.5 215.5,321.5C 216.542,324.794 217.875,327.96 219.5,331C 218.968,333.02 217.635,333.853 215.5,333.5C 212.843,333.065 210.509,332.065 208.5,330.5C 210.288,330.785 211.955,330.452 213.5,329.5C 212.626,327.253 212.292,324.92 212.5,322.5C 210.167,322.5 207.833,322.5 205.5,322.5 Z"/></g>
<g><path style="opacity:1" fill="#7e4b9e" d="M 249.5,324.5 C 250.833,325.167 251.833,326.167 252.5,327.5C 250.883,326.962 249.216,326.629 247.5,326.5C 247.433,327.959 247.766,329.292 248.5,330.5C 247.508,330.672 246.842,330.338 246.5,329.5C 245.659,327.621 245.325,325.621 245.5,323.5C 246.959,323.433 248.292,323.766 249.5,324.5 Z"/></g>
<g><path style="opacity:1" fill="#e495b8" d="M 239.5,326.5 C 241.945,327.312 244.278,328.312 246.5,329.5C 246.842,330.338 247.508,330.672 248.5,330.5C 248.842,331.338 249.508,331.672 250.5,331.5C 250.5,332.167 250.5,332.833 250.5,333.5C 243.894,334.826 237.227,335.826 230.5,336.5C 230.833,335.5 231.5,334.833 232.5,334.5C 235.448,334.777 238.281,334.444 241,333.5C 239.702,331.476 238.202,329.309 236.5,327C 237.448,326.517 238.448,326.351 239.5,326.5 Z"/></g>
<g><path style="opacity:1" fill="#422ea1" d="M 205.5,322.5 C 207.833,322.5 210.167,322.5 212.5,322.5C 212.292,324.92 212.626,327.253 213.5,329.5C 211.955,330.452 210.288,330.785 208.5,330.5C 205.151,329.831 202.484,328.164 200.5,325.5C 200.047,324.542 199.381,323.708 198.5,323C 200.81,322.503 203.143,322.337 205.5,322.5 Z"/></g>
<g><path style="opacity:1" fill="#db81b1" d="M 244.5,319.5 C 243.647,321.893 241.981,323.226 239.5,323.5C 239.5,324.5 239.5,325.5 239.5,326.5C 238.448,326.351 237.448,326.517 236.5,327C 238.202,329.309 239.702,331.476 241,333.5C 238.281,334.444 235.448,334.777 232.5,334.5C 232.66,332.801 232.494,331.134 232,329.5C 231.667,329.833 231.333,330.167 231,330.5C 230.727,328.899 230.227,327.399 229.5,326C 229.833,325.667 230.167,325.333 230.5,325C 229.619,324.292 228.953,323.458 228.5,322.5C 233.877,322.394 238.71,320.727 243,317.5C 243.717,318.044 244.217,318.711 244.5,319.5 Z"/></g>
<g><path style="opacity:1" fill="#452c9b" d="M 252.5,327.5 C 253.338,327.842 253.672,328.508 253.5,329.5C 254.765,332.563 253.765,333.23 250.5,331.5C 249.508,331.672 248.842,331.338 248.5,330.5C 247.766,329.292 247.433,327.959 247.5,326.5C 249.216,326.629 250.883,326.962 252.5,327.5 Z"/></g>
<g><path style="opacity:1" fill="#fab3c0" d="M 293.5,304.5 C 296.536,309.651 297.87,315.317 297.5,321.5C 297.5,321.833 297.5,322.167 297.5,322.5C 296.082,324.187 294.749,326.02 293.5,328C 292.234,328.309 291.067,328.809 290,329.5C 286.505,334.248 283.005,338.915 279.5,343.5C 279.785,341.712 279.452,340.045 278.5,338.5C 276.15,337.226 276.317,335.893 279,334.5C 279.419,335.672 280.085,336.672 281,337.5C 282.484,333.868 284.484,330.534 287,327.5C 287.333,328.5 287.667,329.5 288,330.5C 290.399,325.534 292.899,320.7 295.5,316C 294.75,312.17 294.083,308.337 293.5,304.5 Z"/></g>
<g><path style="opacity:1" fill="#9757a5" d="M 215.5,321.5 C 218.385,321.194 221.052,321.527 223.5,322.5C 224.773,326.865 224.773,331.199 223.5,335.5C 220.627,335.198 217.961,334.531 215.5,333.5C 217.635,333.853 218.968,333.02 219.5,331C 217.875,327.96 216.542,324.794 215.5,321.5 Z"/></g>
<g><path style="opacity:1" fill="#bb6cac" d="M 223.5,322.5 C 225.167,322.5 226.833,322.5 228.5,322.5C 228.953,323.458 229.619,324.292 230.5,325C 230.167,325.333 229.833,325.667 229.5,326C 230.227,327.399 230.727,328.899 231,330.5C 231.333,330.167 231.667,329.833 232,329.5C 232.494,331.134 232.66,332.801 232.5,334.5C 231.5,334.833 230.833,335.5 230.5,336.5C 228.283,335.631 225.95,335.298 223.5,335.5C 224.773,331.199 224.773,326.865 223.5,322.5 Z"/></g>
<g><path style="opacity:1" fill="#432d63" d="M 253.5,329.5 C 254.833,330.5 256.167,331.5 257.5,332.5C 258.167,333.5 258.833,334.5 259.5,335.5C 256.461,334.99 253.461,334.323 250.5,333.5C 250.5,332.833 250.5,332.167 250.5,331.5C 253.765,333.23 254.765,332.563 253.5,329.5 Z"/></g>
<g><path style="opacity:1" fill="#bc6cac" d="M 293.5,291.5 C 294.458,291.953 295.292,292.619 296,293.5C 296.506,300.079 298.506,306.079 302,311.5C 304.82,319.456 307.32,327.456 309.5,335.5C 310.283,339.693 310.949,344.027 311.5,348.5C 311.02,351.443 310.02,354.11 308.5,356.5C 310.428,351.311 309.595,346.645 306,342.5C 304.951,333.126 302.618,324.126 299,315.5C 298.809,317.708 298.309,319.708 297.5,321.5C 297.87,315.317 296.536,309.651 293.5,304.5C 293.5,304.167 293.5,303.833 293.5,303.5C 294.376,303.631 295.043,303.298 295.5,302.5C 294.752,298.843 294.085,295.177 293.5,291.5 Z"/></g>
<g><path style="opacity:1" fill="#8b51a7" d="M 308.5,356.5 C 308.5,357.167 308.167,357.5 307.5,357.5C 303.944,349.638 301.444,341.305 300,332.5C 299,331.167 298,329.833 297,328.5C 296.617,329.056 296.117,329.389 295.5,329.5C 296.167,327.167 296.833,324.833 297.5,322.5C 297.5,322.167 297.5,321.833 297.5,321.5C 298.309,319.708 298.809,317.708 299,315.5C 302.618,324.126 304.951,333.126 306,342.5C 309.595,346.645 310.428,351.311 308.5,356.5 Z"/></g>
<g><path style="opacity:1" fill="#291d81" d="M 294.5,334.5 C 294.833,334.5 295.167,334.5 295.5,334.5C 295.335,337.85 295.502,341.183 296,344.5C 297.906,350.635 300.073,356.635 302.5,362.5C 302.179,364.048 301.179,364.715 299.5,364.5C 298.541,360.617 297.208,356.95 295.5,353.5C 293.935,347.62 293.268,341.62 293.5,335.5C 293.5,334.833 293.833,334.5 294.5,334.5 Z"/></g>
<g><path style="opacity:0.937" fill="#c989a9" d="M 259.5,331.5 C 264.194,336.86 269.194,341.86 274.5,346.5C 274.5,347.167 274.833,347.5 275.5,347.5C 275.833,348.167 276.167,348.833 276.5,349.5C 275.833,349.5 275.5,349.833 275.5,350.5C 274.833,350.5 274.167,350.5 273.5,350.5C 268.833,345.5 264.167,340.5 259.5,335.5C 258.833,334.5 258.167,333.5 257.5,332.5C 257.842,331.662 258.508,331.328 259.5,331.5 Z"/></g>
<g><path style="opacity:1" fill="#683fa5" d="M 307.5,357.5 C 307.5,357.833 307.5,358.167 307.5,358.5C 306.833,358.5 306.167,358.5 305.5,358.5C 303.102,349.662 300.269,340.996 297,332.5C 296.722,333.416 296.222,334.082 295.5,334.5C 295.167,334.5 294.833,334.5 294.5,334.5C 294.366,332.708 294.699,331.042 295.5,329.5C 296.117,329.389 296.617,329.056 297,328.5C 298,329.833 299,331.167 300,332.5C 301.444,341.305 303.944,349.638 307.5,357.5 Z"/></g>
<g><path style="opacity:1" fill="#3f2da3" d="M 305.5,358.5 C 305.446,360.632 304.446,361.965 302.5,362.5C 300.073,356.635 297.906,350.635 296,344.5C 295.502,341.183 295.335,337.85 295.5,334.5C 296.222,334.082 296.722,333.416 297,332.5C 300.269,340.996 303.102,349.662 305.5,358.5 Z"/></g>
<g><path style="opacity:1" fill="#e3d2df" d="M 313.5,329.5 C 313.328,330.492 313.662,331.158 314.5,331.5C 314.938,331.435 315.272,331.601 315.5,332C 314.691,337.417 314.191,342.917 314,348.5C 312.147,352.385 310.48,356.385 309,360.5C 308.329,361.252 307.496,361.586 306.5,361.5C 306.557,360.391 306.89,359.391 307.5,358.5C 307.5,358.167 307.5,357.833 307.5,357.5C 308.167,357.5 308.5,357.167 308.5,356.5C 310.02,354.11 311.02,351.443 311.5,348.5C 312.167,342.167 312.833,335.833 313.5,329.5 Z"/></g>
<g><path style="opacity:1" fill="#f09eba" d="M 297.5,322.5 C 296.833,324.833 296.167,327.167 295.5,329.5C 294.699,331.042 294.366,332.708 294.5,334.5C 293.833,334.5 293.5,334.833 293.5,335.5C 293.167,335.5 292.833,335.5 292.5,335.5C 291.504,335.414 290.671,335.748 290,336.5C 289.667,339.167 289.333,341.833 289,344.5C 287.989,345.337 286.822,345.67 285.5,345.5C 285.335,347.827 284.669,349.993 283.5,352C 281.811,351.866 280.144,351.366 278.5,350.5C 277.833,350.167 277.167,349.833 276.5,349.5C 276.167,348.833 275.833,348.167 275.5,347.5C 275.5,347.167 275.5,346.833 275.5,346.5C 277.404,346.262 278.738,345.262 279.5,343.5C 283.005,338.915 286.505,334.248 290,329.5C 291.067,328.809 292.234,328.309 293.5,328C 294.749,326.02 296.082,324.187 297.5,322.5 Z"/></g>
<g><path style="opacity:1" fill="#dd83b3" d="M 292.5,335.5 C 292.666,341.842 292.5,348.175 292,354.5C 286.313,357.716 281.813,356.382 278.5,350.5C 280.144,351.366 281.811,351.866 283.5,352C 284.669,349.993 285.335,347.827 285.5,345.5C 286.822,345.67 287.989,345.337 289,344.5C 289.333,341.833 289.667,339.167 290,336.5C 290.671,335.748 291.504,335.414 292.5,335.5 Z"/></g>
<g><path style="opacity:1" fill="#f8d5d0" d="M 247.5,352.5 C 245.305,357.152 246.639,359.819 251.5,360.5C 250.209,360.263 249.209,360.596 248.5,361.5C 245.243,361.639 242.076,362.306 239,363.5C 235.726,362.386 232.56,361.053 229.5,359.5C 229.283,356.579 229.949,353.913 231.5,351.5C 234.678,348.78 238.345,347.946 242.5,349C 243.789,350.802 245.456,351.969 247.5,352.5 Z"/></g>
<g><path style="opacity:1" fill="#a969aa" d="M 292.5,335.5 C 292.833,335.5 293.167,335.5 293.5,335.5C 293.268,341.62 293.935,347.62 295.5,353.5C 295.762,354.978 295.429,356.311 294.5,357.5C 292.604,358.275 290.937,359.275 289.5,360.5C 284.091,358.136 279.424,354.802 275.5,350.5C 275.5,349.833 275.833,349.5 276.5,349.5C 277.167,349.833 277.833,350.167 278.5,350.5C 281.813,356.382 286.313,357.716 292,354.5C 292.5,348.175 292.666,341.842 292.5,335.5 Z"/></g>
<g><path style="opacity:1" fill="#dbd9de" d="M 273.5,350.5 C 274.167,350.5 274.833,350.5 275.5,350.5C 279.424,354.802 284.091,358.136 289.5,360.5C 289.5,360.833 289.5,361.167 289.5,361.5C 289.423,362.75 288.756,363.583 287.5,364C 280.17,364.168 272.837,364.001 265.5,363.5C 262.794,363.425 260.127,363.092 257.5,362.5C 255.698,361.542 253.698,360.875 251.5,360.5C 246.639,359.819 245.305,357.152 247.5,352.5C 256.395,352.861 265.061,352.194 273.5,350.5 Z"/></g>
<g><path style="opacity:1" fill="#6e479e" d="M 295.5,353.5 C 297.208,356.95 298.541,360.617 299.5,364.5C 301.179,364.715 302.179,364.048 302.5,362.5C 304.446,361.965 305.446,360.632 305.5,358.5C 306.167,358.5 306.833,358.5 307.5,358.5C 306.89,359.391 306.557,360.391 306.5,361.5C 305.145,363.521 303.479,365.188 301.5,366.5C 298.547,366.85 296.213,365.85 294.5,363.5C 292.95,362.559 291.284,361.893 289.5,361.5C 289.5,361.167 289.5,360.833 289.5,360.5C 290.937,359.275 292.604,358.275 294.5,357.5C 295.429,356.311 295.762,354.978 295.5,353.5 Z"/></g>
<g><path style="opacity:1" fill="#b684ab" d="M 248.5,361.5 C 249.209,360.596 250.209,360.263 251.5,360.5C 253.698,360.875 255.698,361.542 257.5,362.5C 256.508,362.328 255.842,362.662 255.5,363.5C 253.254,362.545 250.921,361.878 248.5,361.5 Z"/></g>
<g><path style="opacity:1" fill="#4e3a75" d="M 255.5,363.5 C 255.842,362.662 256.508,362.328 257.5,362.5C 260.127,363.092 262.794,363.425 265.5,363.5C 268.627,364.581 271.96,365.247 275.5,365.5C 274.432,366.434 273.099,366.768 271.5,366.5C 269.5,366.5 267.5,366.5 265.5,366.5C 264.432,365.566 263.099,365.232 261.5,365.5C 259.972,364.691 258.306,364.024 256.5,363.5C 256.167,363.5 255.833,363.5 255.5,363.5 Z"/></g>
<g><path style="opacity:1" fill="#c68eb7" d="M 275.5,365.5 C 277.288,365.215 278.955,365.548 280.5,366.5C 277.355,367.803 274.355,367.803 271.5,366.5C 273.099,366.768 274.432,366.434 275.5,365.5 Z"/></g>
<g><path style="opacity:1" fill="#aa68ab" d="M 256.5,363.5 C 258.306,364.024 259.972,364.691 261.5,365.5C 258.5,365.167 257.167,366.5 257.5,369.5C 256.041,369.433 254.708,369.766 253.5,370.5C 253.414,369.504 253.748,368.671 254.5,368C 253.552,367.517 252.552,367.351 251.5,367.5C 252.984,365.926 254.651,364.593 256.5,363.5 Z"/></g>
<g><path style="opacity:1" fill="#dfd0e0" d="M 289.5,361.5 C 291.284,361.893 292.95,362.559 294.5,363.5C 293.652,365.093 292.319,366.26 290.5,367C 294.358,367.81 298.024,367.643 301.5,366.5C 303.479,365.188 305.145,363.521 306.5,361.5C 306.915,364.368 305.915,366.535 303.5,368C 291.833,368.333 280.167,368.667 268.5,369C 267.373,370.753 266.373,372.587 265.5,374.5C 266.5,375.167 267.5,375.833 268.5,376.5C 265.553,377.08 262.886,378.08 260.5,379.5C 255.773,380.206 251.107,380.206 246.5,379.5C 245.494,378.604 245.494,377.938 246.5,377.5C 246.833,377.5 247.167,377.5 247.5,377.5C 251.042,377.813 254.375,377.479 257.5,376.5C 262.076,376.253 264.743,373.919 265.5,369.5C 265.5,368.5 265.5,367.5 265.5,366.5C 267.5,366.5 269.5,366.5 271.5,366.5C 274.355,367.803 277.355,367.803 280.5,366.5C 278.955,365.548 277.288,365.215 275.5,365.5C 271.96,365.247 268.627,364.581 265.5,363.5C 272.837,364.001 280.17,364.168 287.5,364C 288.756,363.583 289.423,362.75 289.5,361.5 Z"/></g>
<g><path style="opacity:1" fill="#c897c0" d="M 294.5,363.5 C 296.213,365.85 298.547,366.85 301.5,366.5C 298.024,367.643 294.358,367.81 290.5,367C 292.319,366.26 293.652,365.093 294.5,363.5 Z"/></g>
<g><path style="opacity:1" fill="#d185b6" d="M 261.5,365.5 C 263.099,365.232 264.432,365.566 265.5,366.5C 265.5,367.5 265.5,368.5 265.5,369.5C 262.025,371.407 258.691,373.574 255.5,376C 256.094,376.464 256.761,376.631 257.5,376.5C 254.375,377.479 251.042,377.813 247.5,377.5C 249.5,375.167 251.5,372.833 253.5,370.5C 254.708,369.766 256.041,369.433 257.5,369.5C 257.167,366.5 258.5,365.167 261.5,365.5 Z"/></g>
<g><path style="opacity:1" fill="#694294" d="M 265.5,369.5 C 264.743,373.919 262.076,376.253 257.5,376.5C 256.761,376.631 256.094,376.464 255.5,376C 258.691,373.574 262.025,371.407 265.5,369.5 Z"/></g>
<g><path style="opacity:1" fill="#593889" d="M 251.5,367.5 C 252.552,367.351 253.552,367.517 254.5,368C 253.748,368.671 253.414,369.504 253.5,370.5C 251.5,372.833 249.5,375.167 247.5,377.5C 247.167,377.5 246.833,377.5 246.5,377.5C 246.691,373.337 248.357,370.004 251.5,367.5 Z"/></g>
</svg>
